<svg xmlns="http://www.w3.org/2000/svg" viewBox="0 0 500 500"><g id="freepik--background-simple--inject-2"><path d="M91.46,255.18c.11-38.25,37.92-74.6,74.16-90.13,40.1-17.18,52-36.47,80.76-64.3,74.25-71.92,164.4-13.87,155.19,71.45-4,37.36-16.66,82.66-38.56,115-31.11,45.95-55.26,30.66-106.37,24.92C220.32,308,193,329.65,158,327.75,113.32,325.34,91.35,292.25,91.46,255.18Z" style="fill:#407BFF"></path><path d="M91.46,255.18c.11-38.25,37.92-74.6,74.16-90.13,40.1-17.18,52-36.47,80.76-64.3,74.25-71.92,164.4-13.87,155.19,71.45-4,37.36-16.66,82.66-38.56,115-31.11,45.95-55.26,30.66-106.37,24.92C220.32,308,193,329.65,158,327.75,113.32,325.34,91.35,292.25,91.46,255.18Z" style="fill:#fff;opacity:0.9"></path></g><g id="freepik--Shadow--inject-2"><ellipse id="freepik--path--inject-2" cx="250" cy="416.24" rx="193.89" ry="11.32" style="fill:#f5f5f5"></ellipse></g><g id="freepik--Backboard--inject-2"><rect x="380.36" y="264.78" width="1" height="13.56" style="fill:#407BFF"></rect><rect x="380.36" y="282.22" width="1" height="6.67" style="fill:#407BFF"></rect><rect x="361.92" y="170.97" width="15.93" height="239.08" style="fill:#407BFF"></rect><rect x="361.92" y="170.97" width="15.93" height="20.13" style="opacity:0.2"></rect><rect x="268.79" y="88.56" width="141.28" height="96.18" style="fill:#407BFF"></rect><rect x="297.34" y="72" width="84.18" height="129.28" transform="translate(476.08 -202.78) rotate(90)" style="fill:#fff"></rect><path d="M364.89,132v38.38H314V132h50.92m5-5H309v48.38h60.92V127Z" style="fill:#407BFF"></path><path d="M359.46,162a.51.51,0,0,0-.71.07l-.39.54a.13.13,0,0,0-.06.07.76.76,0,0,0-.08.11c-.61.31-1.44.74-2.45,1.32-.6-.67-1.2-1.34-1.8-2a.38.38,0,0,0-.55.51c.56.6,1.12,1.22,1.69,1.86-1.36.81-2.64,1.6-3.86,2.42-1-1.11-2.08-2.2-3.14-3.26.47-.33.94-.66,1.39-1a.38.38,0,0,0,.09-.53.37.37,0,0,0-.52-.09l-1.51,1c-.35-.34-.7-.69-1.05-1a.38.38,0,1,0-.51.55l.95.91c-1.27.92-2.45,1.83-3.58,2.74-1-1-2.15-2-3.36-3l.75-.63a.36.36,0,0,0,.05-.52.38.38,0,0,0-.53-.05l-.86.71-.86-.72a.38.38,0,1,0-.47.59l.76.62q-1.73,1.48-3.35,3c-1.14-.92-2.33-1.82-3.59-2.74l.95-.91a.38.38,0,0,0-.51-.55c-.35.32-.7.67-1.05,1l-1.51-1a.38.38,0,0,0-.53.09.39.39,0,0,0,.1.53c.45.3.92.63,1.39,1-1,1-2.1,2.12-3.15,3.26-1.31-.87-2.6-1.68-3.85-2.42.55-.63,1.11-1.26,1.68-1.86a.38.38,0,1,0-.55-.51c-.6.64-1.2,1.31-1.79,2-.83-.47-1.65-.9-2.43-1.3a1.25,1.25,0,0,0-.09-.12l0-.05-.44-.57a.49.49,0,0,0-.7-.07.5.5,0,0,0-.08.7s.16.2.43.56h0l0,0c.33.47,1,1.44,1.81,2.87a43.67,43.67,0,0,1,2.45,5c.1.24.2.47.3.72a47.89,47.89,0,0,1,1.59,4.74s0,0,0,.05c.24.85.47,1.78.7,2.86s.43,2.2.57,3.27.28,2.26.37,3.52c.07,1.06.1,2.21.1,3.52,0,.7,0,1.62-.08,2.55a49.76,49.76,0,0,1-.63,5.47c-.06.35-.12.71-.19,1.07-.25,1.32-.55,2.64-.9,3.94-.2.73-.41,1.47-.65,2.22a.49.49,0,0,0,.32.63.4.4,0,0,0,.15,0,.5.5,0,0,0,.48-.35c.18-.57.33-1.12.49-1.67.43.35.9.75,1.43,1.21l-.06.11a.37.37,0,0,0,.12.52.45.45,0,0,0,.19.05.37.37,0,0,0,.32-.17l.09.08a.38.38,0,0,0,.25.09.35.35,0,0,0,.28-.13.38.38,0,0,0,0-.53l-.18-.16c.6-1,1.27-2,2-3.12.78.74,1.61,1.56,2.46,2.46l-.48.68-.14.21a.37.37,0,0,0,.09.52.35.35,0,0,0,.21.07.38.38,0,0,0,.31-.16l.15-.21.38-.55c.25.26.49.52.73.8a.39.39,0,0,0,.28.12.38.38,0,0,0,.25-.09.37.37,0,0,0,0-.53c-.28-.32-.56-.62-.84-.92.76-1.08,1.51-2.08,2.14-2.9.73.82,1.49,1.71,2.29,2.68l-.9,1.16a.36.36,0,0,0,.07.52.3.3,0,0,0,.22.08.36.36,0,0,0,.3-.15c.26-.34.53-.67.8-1l.8,1a.37.37,0,0,0,.29.14.41.41,0,0,0,.24-.08.38.38,0,0,0,.06-.53c-.31-.38-.61-.77-.91-1.15.8-1,1.56-1.86,2.3-2.68.81,1.05,1.5,2,2.14,2.89l-.85.93a.37.37,0,0,0,0,.52.38.38,0,0,0,.53,0c.25-.28.49-.54.74-.8l.38.55.15.21a.38.38,0,0,0,.3.16.36.36,0,0,0,.22-.07.37.37,0,0,0,.09-.52l-.14-.21-.48-.68c.83-.88,1.65-1.7,2.45-2.46.69,1,1.36,2,2,3.12l-.18.16a.38.38,0,0,0,0,.53.35.35,0,0,0,.28.13.38.38,0,0,0,.25-.09l.1-.09a.34.34,0,0,0,.3.18.42.42,0,0,0,.21-.06.39.39,0,0,0,.11-.53l-.06-.09c.51-.44,1-.84,1.44-1.21.15.55.31,1.1.49,1.67a.5.5,0,0,0,.48.35.44.44,0,0,0,.15,0,.5.5,0,0,0,.32-.63c-.24-.75-.45-1.49-.65-2.22-.35-1.28-.65-2.6-.9-3.83a.37.37,0,0,0,0-.11l-.19-1.08a49.92,49.92,0,0,1-.62-5.48c-.06-.92-.08-1.79-.09-2.52,0-1.32,0-2.47.11-3.53.09-1.26.21-2.44.37-3.53s.33-2.12.57-3.26c.19-.89.41-1.8.7-2.87.43-1.55,1-3.13,1.57-4.71l0-.09c.09-.23.18-.46.29-.7a42.14,42.14,0,0,1,2.45-5c.73-1.28,1.37-2.24,1.79-2.84l.05-.06c.26-.36.41-.55.42-.56A.5.5,0,0,0,359.46,162Zm-5.82,9.46a.3.3,0,0,0,0,.08s0,0,0,.06c-1.08.7-2.09,1.39-3.08,2.1-1-1.17-2-2.23-2.92-3.22,1.21-.92,2.4-1.79,3.56-2.58.92,1,1.83,2,2.7,3.07C353.77,171.16,353.7,171.33,353.64,171.49Zm-7.92,26c.86-.85,1.75-1.7,2.65-2.51.78,1.09,1.51,2.14,2.2,3.19-.88.74-1.77,1.53-2.67,2.38C347.22,199.6,346.5,198.59,345.72,197.54Zm-3.47,2.54c-.77-1-1.55-1.91-2.32-2.81.83-1,1.66-1.88,2.48-2.73.78,1,1.55,1.92,2.32,2.93C343.93,198.28,343.09,199.15,342.25,200.08Zm-8.12-2.6c.73-1,1.5-1.94,2.32-2.94.8.83,1.63,1.74,2.49,2.72-.73.84-1.5,1.77-2.34,2.82C335.79,199.19,335,198.31,334.13,197.48ZM331,200.59c-.9-.85-1.8-1.65-2.67-2.38.7-1.06,1.44-2.13,2.2-3.18.9.82,1.79,1.66,2.66,2.52C332.5,198.4,331.73,199.45,331,200.59Zm-2.46,3.78c-.6-.53-1.13-1-1.61-1.36.33-1.26.63-2.54.88-3.83a2.23,2.23,0,0,1,0-.23l.07-.11c.87.74,1.76,1.53,2.66,2.38C329.77,202.35,329.1,203.39,328.49,204.37Zm-3.23-32.79L325,171c.92-1.09,1.81-2.1,2.69-3.07,1.19.82,2.39,1.68,3.57,2.58-.91,1-1.88,2-2.93,3.23-1-.74-2.07-1.45-3.07-2.1C325.27,171.62,325.27,171.6,325.26,171.58Zm25.41,11.19c-.16,1.08-.29,2.26-.37,3.5l-1.18.95c-.9-1.17-1.79-2.25-2.52-3.13,1-.89,2-1.74,3.09-2.56Zm-4.53,8.07c.94-.88,1.9-1.73,2.87-2.54.39.52.79,1,1.17,1.57v0c0,.73,0,1.59.09,2.49-.56.46-1.15,1-1.78,1.51C347.71,192.85,346.93,191.82,346.14,190.84Zm-3.7,2.57c-.81-1-1.65-1.93-2.5-2.86.86-.92,1.75-1.85,2.68-2.76.81.92,1.65,1.92,2.51,3C344.27,191.56,343.37,192.45,342.44,193.41Zm-3,3.28c-.86-1-1.7-1.9-2.49-2.74.83-1,1.67-1.94,2.49-2.84.84.92,1.68,1.88,2.49,2.84C341.1,194.81,340.27,195.73,339.43,196.69Zm-5.7-5.93c.83-1,1.67-2,2.5-3,.89.86,1.79,1.79,2.69,2.76-.82.9-1.66,1.86-2.5,2.86C335.49,192.45,334.59,191.56,333.73,190.76Zm-3.37,3.16q-.93-.81-1.77-1.5c.06-.91.08-1.81.08-2.51v0l1.17-1.57c1,.82,1.94,1.67,2.87,2.55C331.94,191.79,331.17,192.81,330.36,193.92Zm-1.18-12.38c1,.77,2,1.62,3.08,2.55-.86,1-1.71,2.08-2.53,3.13l-1.17-.95c-.08-1.25-.21-2.43-.36-3.5Zm2.7-10.57c1.16.9,2.26,1.8,3.33,2.72-1,1.05-2,2.07-2.92,3.08-1.06-.87-2.16-1.72-3.34-2.59C330,173,331,171.92,331.88,171Zm7.55-.28c1,.9,2.05,1.89,3.11,2.95-1.06.93-2.1,1.88-3.11,2.83-1-1-2.06-1.91-3.12-2.82C337.45,172.52,338.48,171.54,339.43,170.69Zm6.55,6.55c-1,.84-2.06,1.75-3.1,2.71-.95-1-1.93-2-2.91-3,1-1,2-1.89,3.11-2.82C344.07,175.18,345,176.2,346,177.24Zm-3.33,9.46c-.9-1-1.81-2-2.7-2.91,1-1,1.94-1.92,2.89-2.79.92,1,1.83,2,2.71,3C344.57,184.88,343.6,185.78,342.65,186.7Zm-3.22,3.3c-.91-1-1.81-1.91-2.7-2.78.91-1,1.81-2,2.69-2.89.9.92,1.8,1.89,2.7,2.89C341.19,188.14,340.29,189.07,339.43,190Zm-6.12-6c.86-1,1.75-2,2.7-3,.95.87,1.92,1.8,2.89,2.79-.89.92-1.8,1.89-2.7,2.91C335.27,185.8,334.3,184.9,333.31,184Zm6.11-6.5q1.49,1.44,2.91,2.94c-.95.87-1.93,1.81-2.91,2.81-1-1-1.95-1.94-2.9-2.81C337.47,179.45,338.44,178.47,339.42,177.51Zm-.54-.52c-1,1-2,1.95-2.91,3-1.06-1-2.1-1.88-3.1-2.7.91-1,1.87-2,2.91-3.07C336.83,175.09,337.87,176,338.88,177Zm-6.52.82c1,.81,2,1.71,3.09,2.68-.95,1-1.84,2-2.7,3-1.08-.93-2.11-1.79-3.09-2.56C330.5,179.93,331.41,178.87,332.36,177.81Zm-3.74,9.48.65.52c-.21.27-.41.54-.61.82C328.65,188.16,328.64,187.71,328.62,187.29Zm-.11,6c.45.38.92.77,1.4,1.2-.63.87-1.24,1.76-1.83,2.64C328.27,195.9,328.42,194.62,328.51,193.33Zm1.79-5.63c.82-1,1.66-2.09,2.52-3.11,1,.87,1.95,1.77,2.88,2.67-.85,1-1.69,2-2.52,3C332.24,189.38,331.28,188.52,330.3,187.7Zm12.85-.44c.94-.91,1.91-1.81,2.89-2.67.73.87,1.61,1.95,2.51,3.11q-1.46,1.23-2.88,2.55C344.82,189.19,344,188.19,343.15,187.26Zm7.05,1.38-.62-.82.66-.54C350.22,187.71,350.21,188.17,350.2,188.64Zm.14,4.68c.1,1.29.24,2.58.43,3.86-.58-.87-1.19-1.75-1.83-2.65Zm-4.23-9.8c-.88-1-1.79-2-2.71-3,1-1,2.07-1.86,3.09-2.69.85.94,1.75,2,2.72,3.15C348.17,181.77,347.13,182.63,346.11,183.52Zm.45-6.76c-.94-1-1.92-2.07-2.92-3.08,1.1-.94,2.22-1.85,3.34-2.71.94,1,1.9,2,2.92,3.21C348.73,175,347.63,175.89,346.56,176.76Zm.49-6.79c-1.08-1.12-2.11-2.14-3.14-3.11,1.14-.91,2.32-1.81,3.58-2.73,1.06,1.05,2.11,2.14,3.13,3.25C349.47,168.17,348.27,169,347.05,170Zm-.6.46c-1.12.87-2.24,1.78-3.34,2.72q-1.61-1.59-3.12-3c1.06-.95,2.15-1.89,3.34-2.85C344.35,168.3,345.38,169.32,346.45,170.43Zm-7-.74c-1.08-1-2.18-1.92-3.35-2.87q1.64-1.53,3.35-3c1.21,1,2.31,2,3.35,3C341.59,167.79,340.49,168.73,339.43,169.69Zm-.56.5c-.95.85-2,1.83-3.13,3-1.07-.93-2.18-1.83-3.33-2.73,1-1,2-2.06,3.12-3.09C336.7,168.28,337.8,169.22,338.87,170.19Zm-7.06-.22c-1.19-.91-2.39-1.77-3.58-2.59,1-1.13,2.1-2.22,3.14-3.25,1.26.92,2.44,1.82,3.58,2.73C333.86,167.9,332.8,168.94,331.81,170Zm-3.35,4.78c1.17.86,2.27,1.71,3.32,2.58-1,1.07-1.87,2.13-2.71,3.17-.51-.39-1-.76-1.47-1.11-.22-1-.44-2-.68-2.82C327.44,176,328,175.34,328.46,174.75Zm-.64,5.73.77.6-.55.69C328,181.34,327.9,180.91,327.82,180.48Zm3.1,13.94c.8-1.11,1.58-2.11,2.34-3.07.85.8,1.75,1.68,2.67,2.64-.83,1-1.6,2-2.34,2.95Q332.29,195.65,330.92,194.42Zm8.51,3.42c.77.9,1.54,1.84,2.31,2.8-.74.83-1.51,1.72-2.32,2.7-.8-1-1.57-1.87-2.31-2.7C337.94,199.6,338.71,198.68,339.43,197.84Zm3.5-3.85c.92-1,1.81-1.84,2.66-2.64.78,1,1.57,2,2.34,3.07-.91.82-1.8,1.66-2.67,2.51C344.49,195.93,343.72,195,342.93,194Zm8.05,4.86.09.13,0,.12s0,.07,0,.1c.25,1.29.55,2.57.88,3.81-.5.4-1,.85-1.62,1.36-.67-1.08-1.34-2.12-2-3.15C349.22,200.38,350.11,199.59,351,198.85Zm-.16-17.09-.54-.69.76-.59C351,180.91,350.88,181.34,350.82,181.76Zm.44-2.37h0c-.47.34-1,.71-1.46,1.1-1-1.18-1.87-2.22-2.73-3.17,1.06-.87,2.16-1.72,3.32-2.57.52.59,1,1.2,1.54,1.82C351.66,177.62,351.44,178.52,351.26,179.39ZM321.5,164.12l1.08.6-.06.07-.36.42C321.92,164.8,321.7,164.44,321.5,164.12Zm1.05,1.78.53-.62.16-.18c1.25.73,2.54,1.54,3.84,2.41q-1.17,1.29-2.4,2.73A41.68,41.68,0,0,0,322.55,165.9Zm3.17,6.93c.7.47,1.41,1,2.13,1.48l-1.18,1.4C326.38,174.73,326.06,173.77,325.72,172.83Zm5.78,28.28c.77-1.13,1.53-2.17,2.17-3,.83.84,1.65,1.7,2.47,2.6-.63.82-1.39,1.83-2.16,2.91C333.12,202.69,332.29,201.85,331.5,201.11Zm13.38,2.48c-.65-.91-1.35-1.85-2.16-2.91.84-.93,1.66-1.79,2.46-2.6.78,1,1.49,2,2.17,3C346.54,201.88,345.72,202.71,344.88,203.59Zm7.31-27.87c-.4-.48-.79-1-1.19-1.41.69-.51,1.41-1,2.15-1.5C352.8,173.79,352.48,174.75,352.19,175.72Zm2-5.49c-.78-.91-1.58-1.82-2.4-2.72,1.21-.81,2.48-1.61,3.85-2.41l.68.79A43.81,43.81,0,0,0,354.17,170.23Zm2.53-5-.42-.49,1.08-.61Z" style="fill:#407BFF"></path><path d="M359.46,162a.51.51,0,0,0-.71.07l-.39.54a.13.13,0,0,0-.06.07.76.76,0,0,0-.08.11c-.61.31-1.44.74-2.45,1.32-.6-.67-1.2-1.34-1.8-2a.38.38,0,0,0-.55.51c.56.6,1.12,1.22,1.69,1.86-1.36.81-2.64,1.6-3.86,2.42-1-1.11-2.08-2.2-3.14-3.26.47-.33.94-.66,1.39-1a.38.38,0,0,0,.09-.53.37.37,0,0,0-.52-.09l-1.51,1c-.35-.34-.7-.69-1.05-1a.38.38,0,1,0-.51.55l.95.91c-1.27.92-2.45,1.83-3.58,2.74-1-1-2.15-2-3.36-3l.75-.63a.36.36,0,0,0,.05-.52.38.38,0,0,0-.53-.05l-.86.71-.86-.72a.38.38,0,1,0-.47.59l.76.62q-1.73,1.48-3.35,3c-1.14-.92-2.33-1.82-3.59-2.74l.95-.91a.38.38,0,0,0-.51-.55c-.35.32-.7.67-1.05,1l-1.51-1a.38.38,0,0,0-.53.09.39.39,0,0,0,.1.53c.45.3.92.63,1.39,1-1,1-2.1,2.12-3.15,3.26-1.31-.87-2.6-1.68-3.85-2.42.55-.63,1.11-1.26,1.68-1.86a.38.38,0,1,0-.55-.51c-.6.64-1.2,1.31-1.79,2-.83-.47-1.65-.9-2.43-1.3a1.25,1.25,0,0,0-.09-.12l0-.05-.44-.57a.49.49,0,0,0-.7-.07.5.5,0,0,0-.08.7s.16.2.43.56h0l0,0c.33.47,1,1.44,1.81,2.87a43.67,43.67,0,0,1,2.45,5c.1.24.2.47.3.72a47.89,47.89,0,0,1,1.59,4.74s0,0,0,.05c.24.85.47,1.78.7,2.86s.43,2.2.57,3.27.28,2.26.37,3.52c.07,1.06.1,2.21.1,3.52,0,.7,0,1.62-.08,2.55a49.76,49.76,0,0,1-.63,5.47c-.06.35-.12.71-.19,1.07-.25,1.32-.55,2.64-.9,3.94-.2.73-.41,1.47-.65,2.22a.49.49,0,0,0,.32.63.4.4,0,0,0,.15,0,.5.5,0,0,0,.48-.35c.18-.57.33-1.12.49-1.67.43.35.9.75,1.43,1.21l-.06.11a.37.37,0,0,0,.12.52.45.45,0,0,0,.19.05.37.37,0,0,0,.32-.17l.09.08a.38.38,0,0,0,.25.09.35.35,0,0,0,.28-.13.38.38,0,0,0,0-.53l-.18-.16c.6-1,1.27-2,2-3.12.78.74,1.61,1.56,2.46,2.46l-.48.68-.14.21a.37.37,0,0,0,.09.52.35.35,0,0,0,.21.07.38.38,0,0,0,.31-.16l.15-.21.38-.55c.25.26.49.52.73.8a.39.39,0,0,0,.28.12.38.38,0,0,0,.25-.09.37.37,0,0,0,0-.53c-.28-.32-.56-.62-.84-.92.76-1.08,1.51-2.08,2.14-2.9.73.82,1.49,1.71,2.29,2.68l-.9,1.16a.36.36,0,0,0,.07.52.3.3,0,0,0,.22.08.36.36,0,0,0,.3-.15c.26-.34.53-.67.8-1l.8,1a.37.37,0,0,0,.29.14.41.41,0,0,0,.24-.08.38.38,0,0,0,.06-.53c-.31-.38-.61-.77-.91-1.15.8-1,1.56-1.86,2.3-2.68.81,1.05,1.5,2,2.14,2.89l-.85.93a.37.37,0,0,0,0,.52.38.38,0,0,0,.53,0c.25-.28.49-.54.74-.8l.38.55.15.21a.38.38,0,0,0,.3.16.36.36,0,0,0,.22-.07.37.37,0,0,0,.09-.52l-.14-.21-.48-.68c.83-.88,1.65-1.7,2.45-2.46.69,1,1.36,2,2,3.12l-.18.16a.38.38,0,0,0,0,.53.35.35,0,0,0,.28.13.38.38,0,0,0,.25-.09l.1-.09a.34.34,0,0,0,.3.18.42.42,0,0,0,.21-.06.39.39,0,0,0,.11-.53l-.06-.09c.51-.44,1-.84,1.44-1.21.15.55.31,1.1.49,1.67a.5.5,0,0,0,.48.35.44.44,0,0,0,.15,0,.5.5,0,0,0,.32-.63c-.24-.75-.45-1.49-.65-2.22-.35-1.28-.65-2.6-.9-3.83a.37.37,0,0,0,0-.11l-.19-1.08a49.92,49.92,0,0,1-.62-5.48c-.06-.92-.08-1.79-.09-2.52,0-1.32,0-2.47.11-3.53.09-1.26.21-2.44.37-3.53s.33-2.12.57-3.26c.19-.89.41-1.8.7-2.87.43-1.55,1-3.13,1.57-4.71l0-.09c.09-.23.18-.46.29-.7a42.14,42.14,0,0,1,2.45-5c.73-1.28,1.37-2.24,1.79-2.84l.05-.06c.26-.36.41-.55.42-.56A.5.5,0,0,0,359.46,162Zm-5.82,9.46a.3.3,0,0,0,0,.08s0,0,0,.06c-1.08.7-2.09,1.39-3.08,2.1-1-1.17-2-2.23-2.92-3.22,1.21-.92,2.4-1.79,3.56-2.58.92,1,1.83,2,2.7,3.07C353.77,171.16,353.7,171.33,353.64,171.49Zm-7.92,26c.86-.85,1.75-1.7,2.65-2.51.78,1.09,1.51,2.14,2.2,3.19-.88.74-1.77,1.53-2.67,2.38C347.22,199.6,346.5,198.59,345.72,197.54Zm-3.47,2.54c-.77-1-1.55-1.91-2.32-2.81.83-1,1.66-1.88,2.48-2.73.78,1,1.55,1.92,2.32,2.93C343.93,198.28,343.09,199.15,342.25,200.08Zm-8.12-2.6c.73-1,1.5-1.94,2.32-2.94.8.83,1.63,1.74,2.49,2.72-.73.84-1.5,1.77-2.34,2.82C335.79,199.19,335,198.31,334.13,197.48ZM331,200.59c-.9-.85-1.8-1.65-2.67-2.38.7-1.06,1.44-2.13,2.2-3.18.9.82,1.79,1.66,2.66,2.52C332.5,198.4,331.73,199.45,331,200.59Zm-2.46,3.78c-.6-.53-1.13-1-1.61-1.36.33-1.26.63-2.54.88-3.83a2.23,2.23,0,0,1,0-.23l.07-.11c.87.74,1.76,1.53,2.66,2.38C329.77,202.35,329.1,203.39,328.49,204.37Zm-3.23-32.79L325,171c.92-1.09,1.81-2.1,2.69-3.07,1.19.82,2.39,1.68,3.57,2.58-.91,1-1.88,2-2.93,3.23-1-.74-2.07-1.45-3.07-2.1C325.27,171.62,325.27,171.6,325.26,171.58Zm25.41,11.19c-.16,1.08-.29,2.26-.37,3.5l-1.18.95c-.9-1.17-1.79-2.25-2.52-3.13,1-.89,2-1.74,3.09-2.56Zm-4.53,8.07c.94-.88,1.9-1.73,2.87-2.54.39.52.79,1,1.17,1.57v0c0,.73,0,1.59.09,2.49-.56.46-1.15,1-1.78,1.51C347.71,192.85,346.93,191.82,346.14,190.84Zm-3.7,2.57c-.81-1-1.65-1.93-2.5-2.86.86-.92,1.75-1.85,2.68-2.76.81.92,1.65,1.92,2.51,3C344.27,191.56,343.37,192.45,342.44,193.41Zm-3,3.28c-.86-1-1.7-1.9-2.49-2.74.83-1,1.67-1.94,2.49-2.84.84.92,1.68,1.88,2.49,2.84C341.1,194.81,340.27,195.73,339.43,196.69Zm-5.7-5.93c.83-1,1.67-2,2.5-3,.89.86,1.79,1.79,2.69,2.76-.82.9-1.66,1.86-2.5,2.86C335.49,192.45,334.59,191.56,333.73,190.76Zm-3.37,3.16q-.93-.81-1.77-1.5c.06-.91.08-1.81.08-2.51v0l1.17-1.57c1,.82,1.94,1.67,2.87,2.55C331.94,191.79,331.17,192.81,330.36,193.92Zm-1.18-12.38c1,.77,2,1.62,3.08,2.55-.86,1-1.71,2.08-2.53,3.13l-1.17-.95c-.08-1.25-.21-2.43-.36-3.5Zm2.7-10.57c1.16.9,2.26,1.8,3.33,2.72-1,1.05-2,2.07-2.92,3.08-1.06-.87-2.16-1.72-3.34-2.59C330,173,331,171.92,331.88,171Zm7.55-.28c1,.9,2.05,1.89,3.11,2.95-1.06.93-2.1,1.88-3.11,2.83-1-1-2.06-1.91-3.12-2.82C337.45,172.52,338.48,171.54,339.43,170.69Zm6.55,6.55c-1,.84-2.06,1.75-3.1,2.71-.95-1-1.93-2-2.91-3,1-1,2-1.89,3.11-2.82C344.07,175.18,345,176.2,346,177.24Zm-3.33,9.46c-.9-1-1.81-2-2.7-2.91,1-1,1.94-1.92,2.89-2.79.92,1,1.83,2,2.71,3C344.57,184.88,343.6,185.78,342.65,186.7Zm-3.22,3.3c-.91-1-1.81-1.91-2.7-2.78.91-1,1.81-2,2.69-2.89.9.92,1.8,1.89,2.7,2.89C341.19,188.14,340.29,189.07,339.43,190Zm-6.12-6c.86-1,1.75-2,2.7-3,.95.87,1.92,1.8,2.89,2.79-.89.92-1.8,1.89-2.7,2.91C335.27,185.8,334.3,184.9,333.31,184Zm6.11-6.5q1.49,1.44,2.91,2.94c-.95.87-1.93,1.81-2.91,2.81-1-1-1.95-1.94-2.9-2.81C337.47,179.45,338.44,178.47,339.42,177.51Zm-.54-.52c-1,1-2,1.95-2.91,3-1.06-1-2.1-1.88-3.1-2.7.91-1,1.87-2,2.91-3.07C336.83,175.09,337.87,176,338.88,177Zm-6.52.82c1,.81,2,1.71,3.09,2.68-.95,1-1.84,2-2.7,3-1.08-.93-2.11-1.79-3.09-2.56C330.5,179.93,331.41,178.87,332.36,177.81Zm-3.74,9.48.65.52c-.21.27-.41.54-.61.82C328.65,188.16,328.64,187.71,328.62,187.29Zm-.11,6c.45.38.92.77,1.4,1.2-.63.87-1.24,1.76-1.83,2.64C328.27,195.9,328.42,194.62,328.51,193.33Zm1.79-5.63c.82-1,1.66-2.09,2.52-3.11,1,.87,1.95,1.77,2.88,2.67-.85,1-1.69,2-2.52,3C332.24,189.38,331.28,188.52,330.3,187.7Zm12.85-.44c.94-.91,1.91-1.81,2.89-2.67.73.87,1.61,1.95,2.51,3.11q-1.46,1.23-2.88,2.55C344.82,189.19,344,188.19,343.15,187.26Zm7.05,1.38-.62-.82.66-.54C350.22,187.71,350.21,188.17,350.2,188.64Zm.14,4.68c.1,1.29.24,2.58.43,3.86-.58-.87-1.19-1.75-1.83-2.65Zm-4.23-9.8c-.88-1-1.79-2-2.71-3,1-1,2.07-1.86,3.09-2.69.85.94,1.75,2,2.72,3.15C348.17,181.77,347.13,182.63,346.11,183.52Zm.45-6.76c-.94-1-1.92-2.07-2.92-3.08,1.1-.94,2.22-1.85,3.34-2.71.94,1,1.9,2,2.92,3.21C348.73,175,347.63,175.89,346.56,176.76Zm.49-6.79c-1.08-1.12-2.11-2.14-3.14-3.11,1.14-.91,2.32-1.81,3.58-2.73,1.06,1.05,2.11,2.14,3.13,3.25C349.47,168.17,348.27,169,347.05,170Zm-.6.46c-1.12.87-2.24,1.78-3.34,2.72q-1.61-1.59-3.12-3c1.06-.95,2.15-1.89,3.34-2.85C344.35,168.3,345.38,169.32,346.45,170.43Zm-7-.74c-1.08-1-2.18-1.92-3.35-2.87q1.64-1.53,3.35-3c1.21,1,2.31,2,3.35,3C341.59,167.79,340.49,168.73,339.43,169.69Zm-.56.5c-.95.85-2,1.83-3.13,3-1.07-.93-2.18-1.83-3.33-2.73,1-1,2-2.06,3.12-3.09C336.7,168.28,337.8,169.22,338.87,170.19Zm-7.06-.22c-1.19-.91-2.39-1.77-3.58-2.59,1-1.13,2.1-2.22,3.14-3.25,1.26.92,2.44,1.82,3.58,2.73C333.86,167.9,332.8,168.94,331.81,170Zm-3.35,4.78c1.17.86,2.27,1.71,3.32,2.58-1,1.07-1.87,2.13-2.71,3.17-.51-.39-1-.76-1.47-1.11-.22-1-.44-2-.68-2.82C327.44,176,328,175.34,328.46,174.75Zm-.64,5.73.77.6-.55.69C328,181.34,327.9,180.91,327.82,180.48Zm3.1,13.94c.8-1.11,1.58-2.11,2.34-3.07.85.8,1.75,1.68,2.67,2.64-.83,1-1.6,2-2.34,2.95Q332.29,195.65,330.92,194.42Zm8.51,3.42c.77.9,1.54,1.84,2.31,2.8-.74.83-1.51,1.72-2.32,2.7-.8-1-1.57-1.87-2.31-2.7C337.94,199.6,338.71,198.68,339.43,197.84Zm3.5-3.85c.92-1,1.81-1.84,2.66-2.64.78,1,1.57,2,2.34,3.07-.91.82-1.8,1.66-2.67,2.51C344.49,195.93,343.72,195,342.93,194Zm8.05,4.86.09.13,0,.12s0,.07,0,.1c.25,1.29.55,2.57.88,3.81-.5.4-1,.85-1.62,1.36-.67-1.08-1.34-2.12-2-3.15C349.22,200.38,350.11,199.59,351,198.85Zm-.16-17.09-.54-.69.76-.59C351,180.91,350.88,181.34,350.82,181.76Zm.44-2.37h0c-.47.34-1,.71-1.46,1.1-1-1.18-1.87-2.22-2.73-3.17,1.06-.87,2.16-1.72,3.32-2.57.52.59,1,1.2,1.54,1.82C351.66,177.62,351.44,178.52,351.26,179.39ZM321.5,164.12l1.08.6-.06.07-.36.42C321.92,164.8,321.7,164.44,321.5,164.12Zm1.05,1.78.53-.62.16-.18c1.25.73,2.54,1.54,3.84,2.41q-1.17,1.29-2.4,2.73A41.68,41.68,0,0,0,322.55,165.9Zm3.17,6.93c.7.47,1.41,1,2.13,1.48l-1.18,1.4C326.38,174.73,326.06,173.77,325.72,172.83Zm5.78,28.28c.77-1.13,1.53-2.17,2.17-3,.83.84,1.65,1.7,2.47,2.6-.63.82-1.39,1.83-2.16,2.91C333.12,202.69,332.29,201.85,331.5,201.11Zm13.38,2.48c-.65-.91-1.35-1.85-2.16-2.91.84-.93,1.66-1.79,2.46-2.6.78,1,1.49,2,2.17,3C346.54,201.88,345.72,202.71,344.88,203.59Zm7.31-27.87c-.4-.48-.79-1-1.19-1.41.69-.51,1.41-1,2.15-1.5C352.8,173.79,352.48,174.75,352.19,175.72Zm2-5.49c-.78-.91-1.58-1.82-2.4-2.72,1.21-.81,2.48-1.61,3.85-2.41l.68.79A43.81,43.81,0,0,0,354.17,170.23Zm2.53-5-.42-.49,1.08-.61Z" style="fill:#fff;opacity:0.6000000000000001"></path><path d="M358.42,164.56h-38a2.16,2.16,0,0,1-2.14-2.14h0a2.15,2.15,0,0,1,2.14-2.14h38a2.15,2.15,0,0,1,2.14,2.14h0A2.16,2.16,0,0,1,358.42,164.56Z" style="fill:#263238"></path></g><g id="freepik--Ball--inject-2"><circle cx="274.29" cy="236.95" r="17.49" style="fill:#407BFF"></circle><path d="M274.43,254.84h0a.4.4,0,0,1-.39-.41,17.09,17.09,0,0,0-17.09-17.22h-.14a.4.4,0,0,1,0-.8h.14a17.89,17.89,0,0,1,17.89,18A.4.4,0,0,1,274.43,254.84Z" style="fill:#263238"></path><path d="M291.61,237.49a17.87,17.87,0,0,1-17.86-18,.4.4,0,0,1,.4-.4h0a.4.4,0,0,1,.4.41,17.09,17.09,0,0,0,17.06,17.22h.16a.4.4,0,1,1,0,.8Z" style="fill:#263238"></path><path d="M286.66,249.72a.4.4,0,0,1-.29-.12l-24.73-24.73a.4.4,0,1,1,.57-.57L286.94,249a.4.4,0,0,1,0,.57A.38.38,0,0,1,286.66,249.72Z" style="fill:#263238"></path><path d="M261.93,249.72a.41.41,0,0,1-.29-.69l24.73-24.73a.4.4,0,0,1,.57.57L262.21,249.6A.39.39,0,0,1,261.93,249.72Z" style="fill:#263238"></path></g><g id="freepik--Character--inject-2"><path d="M189.18,155.14c.09.69.52,1.19,1,1.13s.74-.65.65-1.34-.52-1.18-1-1.13S189.09,154.46,189.18,155.14Z" style="fill:#263238"></path><path d="M189.64,156.34a24.7,24.7,0,0,0,4,5.42c-1.06,1.28-3.18,1-3.18,1Z" style="fill:#a02724"></path><path d="M186.2,151.68a.41.41,0,0,1-.25-.7,4,4,0,0,1,3.52-1.09.41.41,0,0,1-.19.79h0a3.17,3.17,0,0,0-2.78.89A.43.43,0,0,1,186.2,151.68Z" style="fill:#263238"></path><path d="M169.88,161.24c1.32,6.22,2.73,17.64-1.57,21.87,0,0,1.81,6.3,13.41,6.11,12.75-.21,6-6.43,6-6.43-7-1.54-6.89-6.71-5.76-11.58Z" style="fill:#b55b52"></path><path d="M203.36,256.81s35.73,33.79,47.36,57.08c2.92,27.57,9.5,75.48,9.5,75.48L249.94,388s-22.43-49.5-17.81-69.26c-45.53-39.44-67.63-59.47-67.63-59.47Z" style="fill:#b55b52"></path><path d="M262.15,397.5,253,399.7c-4.1-12-14.92-31-17.09-46.72l19.48-5C257.36,364.87,259.51,382.87,262.15,397.5Z" style="fill:#407BFF"></path><path d="M262.15,397.5,253,399.7c-4.1-12-14.92-31-17.09-46.72l19.48-5C257.36,364.87,259.51,382.87,262.15,397.5Z" style="fill:#fff;opacity:0.7000000000000001"></path><path d="M261.12,389.74c-5.5-2.63-10-1.31-12.07.75,0,1.79,1.22,3.73,1.36,5.67L246.77,403a1.25,1.25,0,0,0,.79,1.79c3.25.83,7.31,1.74,11.38,2.86,4.76,1.31,8.8,2.69,14.39,4.23,3.38.92,5.25-2.23,3.92-2.93-6.05-3.17-9-7.09-13.63-12C263.12,396.39,262.15,390.47,261.12,389.74Z" style="fill:#263238"></path><path d="M162.27,197.23c-1,.52-2.23,1.17-3.35,1.77s-2.29,1.26-3.41,1.92c-2.24,1.33-4.49,2.66-6.64,4.1a79.34,79.34,0,0,0-12,9.37l-1.28,1.31c-.29.3-.25.23-.33.32a2.88,2.88,0,0,0-.21.28,8.07,8.07,0,0,0-.89,2.37,33.09,33.09,0,0,0-.59,7.07c0,2.54.19,5.15.43,7.79s.57,5.32.92,7.9l0,.13a2.86,2.86,0,0,1-5.49,1.46,73.29,73.29,0,0,1-4.67-16.56,36.49,36.49,0,0,1-.33-9.31,17.46,17.46,0,0,1,1.46-5.47,11.76,11.76,0,0,1,1.78-2.77l1.47-1.74a63.26,63.26,0,0,1,6.35-6.24,82.53,82.53,0,0,1,6.87-5.36q3.54-2.5,7.25-4.66c1.24-.73,2.49-1.43,3.76-2.11s2.5-1.3,3.95-2a5.75,5.75,0,0,1,5,10.35Z" style="fill:#b55b52"></path><path d="M135.67,200.17l-.44.38a62.48,62.48,0,0,0-6.41,6.3l-1.47,1.73a13.81,13.81,0,0,0-1,1.34,12.62,12.62,0,0,0-.87,1.55,17.58,17.58,0,0,0-1.49,5.62,37.2,37.2,0,0,0,.32,9.45,69.38,69.38,0,0,0,1.54,7.31l.11.38,8.62-.22-.05-.53c-.29-3.17-.42-5.56-.43-7.75a31.74,31.74,0,0,1,.58-6.95,7.76,7.76,0,0,1,.81-2.2,1.24,1.24,0,0,1,.19-.24,2.17,2.17,0,0,0,.29-.29l1.28-1.3c1.36-1.33,2.89-2.68,4.53-4l.35-.28Z" style="fill:#407BFF"></path><path d="M133.94,238.33l5.48,3.09-6.28,5.19s-4-1.65-4.16-5.39Z" style="fill:#b55b52"></path><polygon points="143.51 246.68 136.72 251.08 133.14 246.61 139.42 241.42 143.51 246.68" style="fill:#b55b52"></polygon><path d="M202.05,190.09c2.34,8.43,4.87,27.2,1.51,67.24L158,259.64c-.6-6.27,1.49-34.67-4.2-64a10.24,10.24,0,0,1,8.54-12c1.43-.22,2.92-.41,4.39-.56a168.28,168.28,0,0,1,19.37-1c2.69.11,5.32.4,7.52.71A10.23,10.23,0,0,1,202.05,190.09Z" style="fill:#263238"></path><path d="M198.75,257.31h0a.51.51,0,0,1-.47-.53c2-27.57-1.06-58.45-1.56-61.87a.5.5,0,1,1,1-.14c.5,3.43,3.54,34.43,1.57,62.08A.5.5,0,0,1,198.75,257.31Z" style="fill:#fff"></path><path d="M163,220.41l7.46-1a4.64,4.64,0,0,0,1.26,2.27,2.7,2.7,0,0,0,1.82.65,2.76,2.76,0,0,0,2.64-1.89q.6-1.39.46-5.86a8.07,8.07,0,0,1-2.56,2.1,7.43,7.43,0,0,1-3.26.69,9.25,9.25,0,0,1-6.51-2.61,10.4,10.4,0,0,1-3.29-6.69,9.4,9.4,0,0,1,.72-5,7.29,7.29,0,0,1,3.16-3.46,11.47,11.47,0,0,1,5.55-1.2,13.93,13.93,0,0,1,6.76,1.39,11.64,11.64,0,0,1,4.49,4.51,20.72,20.72,0,0,1,2.41,8.22q.85,7.51-1.87,11c-1.82,2.34-4.58,3.52-8.26,3.54a14.73,14.73,0,0,1-5.25-.73,9.09,9.09,0,0,1-3.39-2.22A11.61,11.61,0,0,1,163,220.41Zm12.62-12.47a5.73,5.73,0,0,0-1.52-3.52,3.92,3.92,0,0,0-2.88-1.26,2.8,2.8,0,0,0-2.38,1.17,4.83,4.83,0,0,0-.61,3.47,5.88,5.88,0,0,0,1.44,3.55,3.63,3.63,0,0,0,2.73,1.21,3,3,0,0,0,2.53-1.21A4.56,4.56,0,0,0,175.64,207.94Z" style="fill:#fff"></path><path d="M204.27,202.87l-7.09-4.05a35.63,35.63,0,0,0,7.75,12.93C204.77,208.42,204.55,205.47,204.27,202.87Z" style="opacity:0.2"></path><path d="M191.56,257.8S177.67,329.06,165.31,352c-22.7,18-57.65,49.6-57.65,49.6l-5.84-8.64s30-45.78,48.79-53.36c6.1-59.93,7.38-79.93,7.38-79.93Z" style="fill:#b55b52"></path><path d="M101.82,407.37l-9-3.25c7.26-10.44,21.35-31.54,30.61-40.56l16.16,11.14C129.28,382.23,115.68,395.64,101.82,407.37Z" style="fill:#407BFF"></path><path d="M101.82,407.37l-9-3.25c7.26-10.44,21.35-31.54,30.61-40.56l16.16,11.14C129.28,382.23,115.68,395.64,101.82,407.37Z" style="fill:#fff;opacity:0.7000000000000001"></path><path d="M106.67,403.41c0-2.54-6.56-7.34-9.32-6.34-1,.36-2.81,3.07-4.13,4.1l-6,4.93a1.24,1.24,0,0,0,0,1.95c2.68,2,6.07,4.43,9.4,7,3.89,3,7.08,3.11,14.57,3.11,3.5,0,4.47-3.54,3-3.86-6.68-1.46-8.62-2.4-9.65-7C104.42,406.65,106.71,404.74,106.67,403.41Z" style="fill:#263238"></path><path d="M189.07,273s-3.42,13.19-5.12,22.33c-7.51,2-24.6,2.12-29.61-1.26.18-8.47-2-23.86,3.85-36.67C177.2,256.07,189.07,273,189.07,273Z" style="fill:#263238"></path><path d="M176.27,275.23s3.49,10.75,8.3,16.93c.52-2.58,1.13-5.31,1.73-7.88Z" style="opacity:0.2"></path><path d="M200.71,187.25c2.13,2.18,4.46,4.53,6.79,6.69s4.71,4.33,7.13,6.38c4.83,4.07,9.94,7.89,15.09,10.36l1,.41c.36.16.48.2.78.31a20.24,20.24,0,0,0,2,.54c1.43.35,3,.65,4.55.92,3.15.53,6.38,1,9.63,1.43l19.63,2.53h0a2.87,2.87,0,0,1-.18,5.7c-6.72.45-13.39.61-20.14.49-3.37-.09-6.75-.19-10.19-.49-1.73-.15-3.46-.33-5.29-.61-.9-.15-1.85-.33-2.87-.59-.49-.13-1.17-.33-1.58-.49l-1.36-.49a56.08,56.08,0,0,1-9.72-5.06,96.83,96.83,0,0,1-8.54-6.12q-4.07-3.24-7.83-6.76-1.87-1.76-3.7-3.57c-1.24-1.23-2.38-2.42-3.62-3.79a5.75,5.75,0,0,1,8.36-7.89Z" style="fill:#b55b52"></path><path d="M264.73,216.85l8.63-2.53-.94,8.64a6.55,6.55,0,0,1-8.93-.3Z" style="fill:#b55b52"></path><polygon points="281.32 214.3 280.31 222.29 272.42 222.96 273.36 214.32 281.32 214.3" style="fill:#b55b52"></polygon><path d="M166.24,156.63c1.59,8.32,2.1,13.26,6.89,17,7.2,5.65,17.05.48,18-8.15.83-7.76-1.92-20.05-10.55-22.33A11.54,11.54,0,0,0,166.24,156.63Z" style="fill:#b55b52"></path><path d="M182.73,156.34a25.63,25.63,0,0,0,3.09-8.84,2.74,2.74,0,0,0,2.73-1.83c.85-2.15-.71-5.33-2.27-5.39-1.44-3.5-8.19-5-8.59-3-4.88-2.33-11.24.59-9.8,1.67-4.08.58-9.5,3.53-8.11,7.51-3.22,2.41-2.47,8.58.56,9.88,0,5.19,8.69,11.94,8.69,11.94l8.11-.72a6.46,6.46,0,0,0,5.53-4.29A10.55,10.55,0,0,0,182.73,156.34Z" style="fill:#263238"></path><path d="M177.83,156.63a9.62,9.62,0,0,0,3.42,5.11c2.21,1.66,3.87,0,3.73-2.47-.13-2.26-1.44-5.85-3.88-6.53S177.21,154.17,177.83,156.63Z" style="fill:#b55b52"></path><polygon points="204.2 253.18 205.15 256.47 157.21 259.05 157.32 254.65 204.2 253.18" style="fill:#263238"></polygon><path d="M205,256.48s10.59,9.77,16.14,17.22c-3.6,6.9-13.47,18.41-20.25,20.67-8.29-1.72-31.46-15.18-37.62-36.55C172.57,257.11,205,256.48,205,256.48Z" style="fill:#263238"></path><path d="M162.84,259.56c-1.54,0-3,0-4.21-.09a.49.49,0,0,1-.47-.52.47.47,0,0,1,.52-.47c9.34.45,27.84-1,44.7-2.42a.5.5,0,0,1,.08,1C188.1,258.38,172.77,259.56,162.84,259.56Z" style="fill:#fff"></path></g></svg>