<svg xmlns="http://www.w3.org/2000/svg" viewBox="0 0 500 500"><g id="freepik--Tree--inject-3"><g id="freepik--Palm--inject-3"><path d="M134.46,70.07a133.33,133.33,0,0,0-16.19,17.38,154.24,154.24,0,0,0-13.2,19.77,150.63,150.63,0,0,0-10,21.44,139.52,139.52,0,0,0-6.23,22.6c-.35,1.91-.7,3.82-1,5.78s-.57,3.9-.83,5.86l-.69,5.86c-.19,2-.41,3.91-.56,5.88a191.16,191.16,0,0,0-1.05,23.55A182.31,182.31,0,0,0,87,221.5c.76,3.79,3,12,3,12,1,7-18,7-19.48,2.71A118,118,0,0,1,68,223.64a141.34,141.34,0,0,1-1.09-25.51c.35-8.5,1-17,2.17-25.4a190.17,190.17,0,0,1,5.31-25,171,171,0,0,1,9.09-24,179.88,179.88,0,0,1,12.26-22.25A169.31,169.31,0,0,1,129,63.7Z" style="fill:#b16668"></path><path d="M128.45,65.43c3.39-4.08,1.54-3.54,6.47-8.3,7.47-7.22,21.88-11.09,34.84-10.51,22.82,1,45.5,9.62,58,29.44-10.09-6.42-21.46-6.51-32.8-4.36-3.72-4.17-7.42-8.3-11.31-12.3.75,4.6,1.58,9.18,2.54,13.75-5.28,1.24-10.49.65-15.81-.05-4.08-5.24-8.47-10.18-13-15,2.06,4.66,4.09,9.33,6,14.06C151.61,71.17,139.6,69.61,128.45,65.43Z" style="fill:#BA68C8"></path><g style="opacity:0.15"><path d="M128.45,65.43c3.39-4.08,1.54-3.54,6.47-8.3,7.47-7.22,21.88-11.09,34.84-10.51,22.82,1,45.5,9.62,58,29.44-10.09-6.42-21.46-6.51-32.8-4.36-3.72-4.17-7.42-8.3-11.31-12.3.75,4.6,1.58,9.18,2.54,13.75-5.28,1.24-10.49.65-15.81-.05-4.08-5.24-8.47-10.18-13-15,2.06,4.66,4.09,9.33,6,14.06C151.61,71.17,139.6,69.61,128.45,65.43Z"></path></g><path d="M132,66.7s1.14-7.2-10.15-17.44c-17.72-16.06-40.8-19-52.46-18s-28.25,6.18-35.77,14.8c0,0,12.43-3.15,28.43,2.1,0,0,9.87-6.74,21.57-8.91,0,0-11.31,8-13.54,11.63,0,0,7.74,6.24,20.6,7.1,0,0,8-10.64,17.88-11.34,0,0-8.75,4-11.85,13A176.91,176.91,0,0,0,132,66.7Z" style="fill:#BA68C8"></path><path d="M132,66.7s1.14-7.2-10.15-17.44c-17.72-16.06-40.8-19-52.46-18s-28.25,6.18-35.77,14.8c0,0,12.43-3.15,28.43,2.1,0,0,9.87-6.74,21.57-8.91,0,0-11.31,8-13.54,11.63,0,0,7.74,6.24,20.6,7.1,0,0,8-10.64,17.88-11.34,0,0-8.75,4-11.85,13A176.91,176.91,0,0,0,132,66.7Z" style="opacity:0.2"></path><path d="M132,66.7A67.45,67.45,0,0,0,90.82,63C60.65,69.82,44.65,86.21,39.47,99.91c0,0,12.17-11.6,32.7-8.76L82,77.36l.16,14.18c4.34.38,9.92-.84,16.42-3.25l9.28-18L105.81,85.5S123.6,79.38,132,66.7Z" style="fill:#BA68C8"></path><path d="M132,66.7A67.45,67.45,0,0,0,90.82,63C60.65,69.82,44.65,86.21,39.47,99.91c0,0,12.17-11.6,32.7-8.76L82,77.36l.16,14.18c4.34.38,9.92-.84,16.42-3.25l9.28-18L105.81,85.5S123.6,79.38,132,66.7Z" style="opacity:0.05"></path><path d="M132,66.7s5.27-2.29,16.66,1.26C168,74,184.75,93.68,189.54,104.17S198,131.38,194.26,142c0,0-3.34-12.18-15.62-23.34,0,0,1-11.73-2.86-22.81,0,0-1.35,13.58-3.39,17.26,0,0-9.1-3.6-16.09-14.21,0,0,5.22-12,1-20.83,0,0,.81,9.45-5.39,16.48C151.93,94.56,142,81.51,132,66.7Z" style="fill:#BA68C8"></path><path d="M132,66.7s5.27-2.29,16.66,1.26C168,74,184.75,93.68,189.54,104.17S198,131.38,194.26,142c0,0-3.34-12.18-15.62-23.34,0,0,1-11.73-2.86-22.81,0,0-1.35,13.58-3.39,17.26,0,0-9.1-3.6-16.09-14.21,0,0,5.22-12,1-20.83,0,0,.81,9.45-5.39,16.48C151.93,94.56,142,81.51,132,66.7Z" style="opacity:0.05"></path><path d="M117.08,154.25s5.19-9.88,4.89-20.25c-.09-2.88-.35-5.91-.68-9,9.59-7.95,9.84-15.32,9.84-15.32-2,4.43-7.55,8.21-10.69,8.92-1.72-6.66-1.29-13.53-1.37-19.55,7.92-4.22,10.22-9.34,10.22-9.34C126.62,92,121.7,93.61,118.86,94,120.17,81.09,126.64,70.1,132,66.7c0,0,7.31,4,10.79,27.66C146.32,118.81,135.73,143.9,117.08,154.25Z" style="fill:#BA68C8"></path></g></g><g id="freepik--Clouds--inject-3"><g id="freepik--clouds--inject-3"><path d="M349.76,124.27l6,3.46a7.13,7.13,0,0,1-.05-.79V125.2c0-3.1,2.17-4.35,4.85-2.8a9.29,9.29,0,0,1,2.89,2.78c.44-3.89,3.49-5.34,7.2-3.2a16,16,0,0,1,7.26,12.57v2.6a6.94,6.94,0,0,1-.61,3l5,2.88a5.92,5.92,0,0,1,2.69,4.66c0,1.71-1.2,2.41-2.69,1.55l-32.52-18.78a5.93,5.93,0,0,1-2.69-4.66C347.07,124.1,348.27,123.41,349.76,124.27Z" style="fill:#ebebeb"></path><path d="M389.43,108.32l3.31,1.28v-7.3c0-5.78,4.62-7.16,9.62-4.27h0c5,2.89,9.07,9.92,9.07,15.7v1.06a4.87,4.87,0,0,1,4.21.65h0a14.42,14.42,0,0,1,6.52,11.3v.48l4.62,2.67a9.49,9.49,0,0,1,4.29,7.44c0,2.74-1.92,3.85-4.29,2.48l-37.35-21.56a9.49,9.49,0,0,1-4.29-7.44C385.14,108.07,387.06,107,389.43,108.32Z" style="fill:#ebebeb"></path></g></g><g id="freepik--Sun--inject-3"><circle id="freepik--sun--inject-3" cx="312" cy="86.96" r="24.66" style="fill:#f0997a"></circle></g><g id="freepik--Pool--inject-3"><path d="M355.34,476.08c-33.48,0-65.35-7.75-89.72-21.82a106.15,106.15,0,0,1-25.07-19.6A297.19,297.19,0,0,1,196,438c-47.07,0-91.69-10.8-125.66-30.41C32,385.41,10.88,354.44,10.88,320.35S32,255.3,70.37,233.15c34-19.63,78.63-30.43,125.71-30.43s91.73,10.81,125.72,30.43c30.7,17.73,50.52,41.56,57.09,67.73,24.68,2.75,47.62,9.81,66.18,20.52,28.33,16.36,44.58,40.57,44.58,66.43s-16.25,50.07-44.58,66.43C420.69,468.33,388.83,476.08,355.34,476.08Z" style="fill:#BA68C8"></path><path d="M355.34,476.08c-33.48,0-65.35-7.75-89.72-21.82a106.15,106.15,0,0,1-25.07-19.6A297.19,297.19,0,0,1,196,438c-47.07,0-91.69-10.8-125.66-30.41C32,385.41,10.88,354.44,10.88,320.35S32,255.3,70.37,233.15c34-19.63,78.63-30.43,125.71-30.43s91.73,10.81,125.72,30.43c30.7,17.73,50.52,41.56,57.09,67.73,24.68,2.75,47.62,9.81,66.18,20.52,28.33,16.36,44.58,40.57,44.58,66.43s-16.25,50.07-44.58,66.43C420.69,468.33,388.83,476.08,355.34,476.08Z" style="opacity:0.2"></path><g id="freepik--pool--inject-3"><path d="M439.5,332.3c-21.76-12.56-50.22-18.87-78.73-19,0-.36,0-.73-.08-1.1,1.67-25.49-14.34-51.3-48.05-70.76-64.24-37.09-168.41-37.09-232.66,0C48,260,31.9,284.2,31.81,308.44V316C31.9,340.29,48,364.51,80,383c46.88,27.07,115,34.36,173.35,21.93,5.26,9.56,14.45,18.55,27.58,26.13,43.79,25.29,114.79,25.29,158.59,0,21.93-12.66,32.87-29.26,32.83-45.86v-7C472.4,361.6,461.45,345,439.5,332.3Z" style="fill:#e0e0e0"></path><path d="M280.91,431.06c43.79,25.29,114.79,25.29,158.59,0,21.93-12.66,32.87-29.26,32.83-45.86v-7c.07-16.62-10.88-33.24-32.83-45.92-21.76-12.56-50.22-18.87-78.73-19,0,0,0,0,0-.06l-.14.06-11.69,10.71-95.6,73.68v7.2C258.59,414.49,267.78,423.48,280.91,431.06Z" style="fill:#ebebeb"></path><path d="M439.5,332.3c-21.79-12.58-50.32-18.9-78.88-19,2.21-25.85-13.78-52.12-48-71.86-64.24-37.09-168.41-37.09-232.66,0S15.74,338.71,80,375.8c46.88,27.07,115,34.36,173.35,21.93,5.26,9.56,14.45,18.55,27.58,26.13,43.79,25.28,114.79,25.28,158.59,0S483.29,357.58,439.5,332.3Z" style="fill:#fafafa"></path><path d="M360.2,432.09c-28.1,0-54.35-6.23-73.93-17.53-10.95-6.32-19.09-13.93-23.53-22l-3.84-7-7.8,1.66a263.94,263.94,0,0,1-54.84,5.64c-42.08,0-81.46-9.36-110.91-26.37C57.74,350.56,42.54,330,42.54,308.64s15.2-41.92,42.81-57.86c29.47-17,68.87-26.38,111-26.38s81.5,9.37,111,26.38c29,16.75,44.57,39.22,42.65,61.65l-1,11.62,11.67,0c27.95.06,54.07,6.28,73.53,17.52,17.72,10.23,27.47,23.18,27.47,36.48s-9.75,26.25-27.47,36.48C414.55,425.86,388.3,432.09,360.2,432.09Z" style="fill:#BA68C8"></path><path d="M451.15,401.43a73.18,73.18,0,0,0-17-13.13c-19.45-11.24-45.57-17.46-73.52-17.53l-11.67,0v-46.7l11.67,0c27.95.07,54.07,6.29,73.52,17.53,17.72,10.23,27.48,23.18,27.48,36.48,0,8.09-3.61,16.06-10.44,23.36Z" style="fill:#fff;opacity:0.7000000000000001"></path><path d="M349.93,312.42l-1,11.63v21.29c-4.05-17.64-18.61-34.56-41.65-47.86-29.48-17-68.88-26.39-111-26.39s-81.49,9.38-110.95,26.39C68,307.47,55.59,319.3,48.73,332a48.74,48.74,0,0,1-6.2-23.35c0-21.37,15.21-41.92,42.83-57.86,29.46-17,68.86-26.39,111-26.39s81.49,9.38,111,26.39C336.29,267.53,351.84,290,349.93,312.42Z" style="fill:#fff;opacity:0.5"></path><path d="M451.16,401.44a73.5,73.5,0,0,1-17,13.12c-19.57,11.3-45.82,17.53-73.92,17.53s-54.35-6.23-73.93-17.53c-10.95-6.32-19.09-13.93-23.53-22l-3.85-7-7.79,1.66a263.94,263.94,0,0,1-54.84,5.64c-42.07,0-81.46-9.36-110.9-26.37C68,356.5,55.59,344.68,48.73,332c6.86-12.69,19.3-24.52,36.63-34.51,29.46-17,68.86-26.39,111-26.39s81.49,9.38,111,26.39c23,13.3,37.6,30.22,41.65,47.86v25.41l11.67,0c27.95.07,54.07,6.29,73.52,17.53A73,73,0,0,1,451.16,401.44Z" style="fill:#fff;opacity:0.6000000000000001"></path><path d="M349.94,312.27c-1.64-19.93-16.81-39.39-42.66-54.32-29.48-17-68.88-26.38-111-26.38s-81.49,9.36-110.95,26.37C59.29,273,44.27,292.15,42.68,312.23c-.1-1.19-.15-2.38-.15-3.59,0-21.37,15.21-41.92,42.83-57.86,29.46-17,68.86-26.39,111-26.39s81.49,9.38,111,26.39C336.23,267.5,351.78,289.91,349.94,312.27Z" style="fill:#e0e0e0"></path><path d="M461.6,378.08a25.23,25.23,0,0,1-.24,3.58c-1.58-12-11.12-23.59-27.24-32.9-19.45-11.23-45.57-17.46-73.52-17.51l-11.67,0v-7.17h.61l11.06,0c27.95.07,54.07,6.29,73.52,17.53C451.84,351.83,461.6,364.78,461.6,378.08Z" style="fill:#ebebeb"></path><path d="M387.71,423.84a3.52,3.52,0,0,0-2.18,2.76,11.2,11.2,0,0,0-.17,3.79,161.18,161.18,0,0,0,16.86-3.24c-2.08-.94-4.18-1.87-6.43-2.63C393.18,423.62,389.87,423,387.71,423.84ZM266,240.77q-7.5-2.13-15.39-3.77a22.21,22.21,0,0,0,2.9,1.37C257.27,239.77,261.78,240,266,240.77Zm176,141.8a55.94,55.94,0,0,1-12.31-3.66,50.53,50.53,0,0,1-5.85-3c-1.81-1.07-3.72-1.62-5.52-2.8-2.2-1.45-3.83-3.28-3.75-5.05s1.74-3.17,2.62-4.77c2-3.67-.69-8.38-6.4-11.25-2.86-1.43-6.79-2.84-7-4.86s3.35-2.92,6.18-3.77a32,32,0,0,0,6.7-2.83c-2.55-.94-5.17-1.81-7.84-2.61a19.34,19.34,0,0,1-6.7,3.59c-5.64,1.84-13,2.1-18,4.41-2.61,1.2-5.27,3-8.85,2.35a6.64,6.64,0,0,1-4.79-3.41c-.69-1.43-.74-2.89-1.5-4.3-1.25-2.34-4.35-4.36-7.63-6.08-2.21-1.16-4.57-2.24-7-3.29l-5.18,0V329c-6.06-2.64-11.93-5.35-16-9-1.22-1.08-2.28-2.37-1.7-3.45,1.2-2.27,7.57-1.4,10.66-2.87s1.59-4.72-.19-7.25l-5.43-7.65c-1.29-1.83-2.6-3.67-2.9-5.54s.58-3.79,3-4.78a12.11,12.11,0,0,1,4.56-.71,76.56,76.56,0,0,0-9-11.05,12.32,12.32,0,0,1,1.31,2,3.25,3.25,0,0,1,.26,3.12,7.55,7.55,0,0,1-3,2.23c-2.95,1.64-5.72,3.42-7.36,5.62A6.08,6.08,0,0,0,323,297c1.79,2.67,5.72,4.82,8.33,7.31s3.45,6.06-.36,7.32a17,17,0,0,1-4,.58,35.63,35.63,0,0,1-13.66-2.15,11.36,11.36,0,0,1-4.74-3.85c-1.95-2.74-2.27-6-2.6-9.12-.3-2.82-.73-5.92-2.62-8.47-1.58-2.14-4.11-3.41-5.59-5.63a25.15,25.15,0,0,1-2-4.89c-2.9-7.23-13.87-6.33-16.8-13.15-1.48-3.42,2.9-6.5,8.5-7.14s11.91.64,17.39,2.48A83.86,83.86,0,0,1,324.23,270c1.4.93,2.76,1.88,4,2.88A119,119,0,0,0,307.53,258q-2.58-1.49-5.27-2.9c-5.56-1-11.14-1.14-16.67-1.37a2.42,2.42,0,0,1-1.17-.27,2.77,2.77,0,0,1-1-2,18.19,18.19,0,0,0-1.91-5.53q-4.74-1.75-9.68-3.31c4.21,2,6.14,5.33,6.41,8.31a4.53,4.53,0,0,1-3,5.07c-1.27.48-2.89.66-4.06,1.19a3.79,3.79,0,0,0-2,2.28c-.94,2.92,1.21,6.37,5.42,8.64,2.23,1.19,4.92,2.06,7.29,3.14a24.38,24.38,0,0,1,5.68,3.52c2,1.67,3.24,4,1.08,5.2a10.67,10.67,0,0,1-3.87.86c-6.45.65-14.27,1-19.46-1.95-3.81-2.2-4.63-5.41-7.34-8.07a26.82,26.82,0,0,0-6.07-4.09,95,95,0,0,0-28.41-9.36c-3.6-.6-7.74-1.23-9.84-3.11a5.27,5.27,0,0,1-1.61-3.64c-.53-3.79-.22-7.8,2.56-10.14,1.45-1.23,7.78-3.87,3.54-6.56-2-1.24-5-1.36-7.63-1.91-3-.15-6-.26-9.09-.31,2.9.92,6.46,1.38,8.85,2.77a2.79,2.79,0,0,1,1.28,1.24c.39,1.23-1.85,1.85-3.38,2.54a4.68,4.68,0,0,0-3,3.23,9.64,9.64,0,0,1-.28,2,2.35,2.35,0,0,1-2.21,1.28c-1.62.06-3-.88-4.37-1.52-5.1-2.42-12.24-1.25-18-3a33.13,33.13,0,0,1-5.38-2.31c-3.29-1.59-6.78-3-10.25-4.47q-3,.34-5.91.76a71,71,0,0,1,9,4.37c4.78,2.71,9.8,5.79,16,6.53,4.24.5,8.44-.19,12.65.54,6.56,1.14,11,6.12,8.32,9.33-1.05,1.27-2.91,2.18-4.54,3.19-3.21,2-5.6,4.53-5.91,7.43s1.66,6.17,5.8,8.3c2.36,1.21,7.79,2.36,6.64,3.8-1.83,2.27-9.16-.72-13.65-1.78a37.81,37.81,0,0,0-10.42-1.23c-4.52.2-9.07,1-13.76-.11-3.39-.82-8-2.5-10-5.9-1.61-2.76-.85-5.67-2.94-8.34-2.77-3.53-9.53-5.53-15.65-7.1s-12.91-3.37-16.11-6.81a5.84,5.84,0,0,1-1.74-4.24q-3,.93-6,1.94a17.24,17.24,0,0,0,2,3.79c1.35,1.92,3.19,4,2.79,6.07-.26,1.38-1.51,2.19-2.67,2.88a8.29,8.29,0,0,1-5,1.65c-2.27-.17-4.37-1.83-6.4-3.26a50,50,0,0,0-7.78-4.4q-6.92,3.15-13.26,6.77A19.18,19.18,0,0,1,96.42,257a28,28,0,0,1,10.45,5c1.72,1.21,3.43,2.5,4.13,4,.53,1.13.39,2.25.74,3.38.83,2.9,4.57,5.46,8.38,7.65,3.62,2.09,7.94,4.71,6.9,7.26a11.59,11.59,0,0,1-1.46,2c-1.46,2.05-.52,4.76,2.29,6.7,3.27,2.26,8.65,3.42,11.14,6s.49,5.87-4,6.48-9.81-1.13-14-.22c-4,.87-5.37,3.86-9.48,4.54s-8.48-1.11-12.74-2.1a36.18,36.18,0,0,0-12-.69c-2.22.25-4.27.75-6.55.87a16,16,0,0,1-6.65-1.26,20.44,20.44,0,0,1-7.12-4.74c-2-2.15-2.67-4.73-1.16-6.7,2.34-3.06,8.73-4,14.43-4.89s11.93-2.32,13-5.69c1.22-3.62-4-7.35-7.69-10.86-3.88-3.71-6.25-8.12-4.44-11.83A6.16,6.16,0,0,1,82,260.13q-4.35,2.69-8.26,5.53a17.92,17.92,0,0,0,3.81,7c1.21,1.39,2.64,2.6,3.8,4.05a7,7,0,0,1,1.87,4.85c-.31,2.48-3,3.62-5.46,3.9-2.89.34-5.93,0-8.84.28s-5.79,1.28-7.15,3.65c-.5.86-.81,1.9-1.65,2.42a4,4,0,0,1-2.54.27,29.12,29.12,0,0,1-7.1-2.17c-.87,1.44-1.66,2.89-2.39,4.35a11.49,11.49,0,0,1,2.5,1.53c2.31,1.91,2.78,4.27,4.89,6.24,2.29,2.16,6.2,3.58,9.77,5.06s7.23,3.36,8.27,5.72c.92,2.1-.47,4.1-.54,6.19-.1,3.21,3,6.48,6.39,9.37s7.34,5.67,9.51,8.86c1.15,1.73,1.75,3.6.82,5.17s-3.2,2.61-5.2,3.73a17,17,0,0,0-5,3.86c-1.42,1.73-1,3.84-1.64,5.91a5.52,5.52,0,0,1-3.33,3.44q5.18,3.7,11.13,7.15Q90,369,94.7,371.35a63.52,63.52,0,0,1,8.23,1.82,20.47,20.47,0,0,1,5.85,2.4,31.8,31.8,0,0,1,4,3.49,210.26,210.26,0,0,0,21.58,6.53c-.87-.29-1.73-.58-2.58-.88-6.2-2.21-12.4-5.69-12.6-9.61-.09-2,1.4-3.73,3.35-5.19a23,23,0,0,1,12.26-4.29c5.11-.34,11.08.93,14.53,3.53,2.27,1.71,3.25,3.81,4.7,5.75a12.1,12.1,0,0,0,7.18,4.71c4.55,1,9-.74,13.61-.06,4.88.71,8.05,3.68,10.51,6.32l6.49,7c1.55,0,3.1,0,4.66,0H197a57.63,57.63,0,0,1-3.13-5.44c-4.06-7.11-11.94-13.84-22.17-18.9-5.24-2.58-11.14-4.78-15.44-7.89s-6.54-7.58-3-10.32,11.76-2.52,18-.62,11.25,5,16.88,7.52a17.19,17.19,0,0,0,5.53,1.67c5.1.44,7.23-3.76,12.24-3.9a4.08,4.08,0,0,1,2.89.94c1.33,1.55-.14,4.57-1.54,6.26s-3.8,3-5.47,4.55-2.52,3.76-.64,5.6c2.93,2.88,10.67,3.38,13.24,6.33,2.42,2.78-1.47,5.49-1,8.42.26,1.72,2,3.38,3.72,5,4.84-.36,9.65-.85,14.4-1.47a40.5,40.5,0,0,1-6.85-3.89c-2.59-2.06-3.55-5.07-.63-6.45,1.44-.7,3.63-.89,5.41-1.3,5.34-2.92,8.78-7,9.7-11.42.5-2.47.24-5.06.82-7.53a8.65,8.65,0,0,1,5.54-6.22,4.52,4.52,0,0,1,1.7-.37,7.62,7.62,0,0,1,2.49.55c4.91,1.68,10.25,3.68,12.21,6.7,1.64,2.53.4,5.14-1.82,7.14-2.06,1.88-5.08,3.72-4.31,6.13.49,1.53,2.49,2.91,4.73,3.94,5,2.28,11.14,3.15,16.62,4.91s10.79,5.21,9.59,8.4c-1.56,4.1-12,4.22-15.4,7.79a9.77,9.77,0,0,0-1.56,2.59,62.5,62.5,0,0,0,4.53,4.32,43.21,43.21,0,0,1,14.1-.87,33.74,33.74,0,0,1,10.43,2.55c7.57,3.46,9.17,10,4.8,14.13-.2.18-.41.36-.63.53,1.6.61,3.22,1.18,4.87,1.73a24.69,24.69,0,0,1,4-1.87c5.74-2,14.07-1.81,20.66.57a34.29,34.29,0,0,1,7.84,4.09,24,24,0,0,1,5.33,4.71c2.61.21,5.25.35,7.91.45-2.07-3.57-6.47-6.9-12.12-9a52.11,52.11,0,0,1-5.51-2.14c-1.65-.87-3-2.12-2.7-3.28a4.87,4.87,0,0,1,1.09-1.62c1.34-1.77,1.14-4-.53-6-1.07-1.24-2.69-2.81-1.27-3.69a5.2,5.2,0,0,1,3.89,0,13.64,13.64,0,0,1,3.27,1.81,24.7,24.7,0,0,0,10,4.09c7,1,12.61-2,16.94-4.77l6.86-4.43c2-1.25,4.41-2.63,7.63-2.33a41.4,41.4,0,0,1,5.64,1.38,43,43,0,0,0,7,.76,81.7,81.7,0,0,1,30.1,7.81,42.22,42.22,0,0,1,8.28,5.24s0,0,0,0c.75-.41,1.5-.81,2.23-1.23,1.71-1,3.32-2,4.88-3a20.33,20.33,0,0,0-6.07-2.65,15.93,15.93,0,0,1-3.47-.83,3.46,3.46,0,0,1-2.22-2.7c0-1.94,2.58-2.1,4.52-2.23a10.06,10.06,0,0,0,9.22-11c-.07-1-.23-2.11.45-2.68a2.79,2.79,0,0,1,1.9-.39l15.79.5a30.47,30.47,0,0,0,1.78-5.4C454.77,383.76,448.39,383.75,441.92,382.57ZM262.28,291.33a7.58,7.58,0,0,1,2.1-3.29c3-2.68,9-3.75,14.9-3.57,8.15.27,17.33,3.16,20.4,7.76,2.66,4,.21,8.06,1.73,12.15,2,5.27,10,9.47,17.51,13.17l24.45,12.06c9.26,4.57,19.23,9.79,21.48,16.33a4.43,4.43,0,0,1-.47,4.45c-1.63,2.06-5.67,3-9.73,3.27-7.47.46-12.72-1.23-20.18-3.08-1.56-.38-3.39-.79-4.23-1.09-.45-.16-1.89-.49-1.89-.49-4.69-1.29-6.1-1.63-9.88-3.61-2.44-1.29-4.68-2.86-5.37-4.63s.15-3.38-.35-5.09-2.46-3.51-4.35-5.12a32.44,32.44,0,0,0-9.33-6c-4.06-1.57-8.82-2.1-13.39-2.59s-9.32-1-13.4-2.53-7.33-4.42-6.35-6.87c.5-1.26,2-2.22,3-3.32,3-3.16,2-7.74-2.56-11a21.64,21.64,0,0,1-3.53-2.69A4,4,0,0,1,262.28,291.33Zm-58.43-19.87c-2.32-2.28-3.48-5-2.26-7.22,1.95-3.54,9.35-4.94,16.15-4.2s13.15,3.09,19.22,5.4c8.94,3.4,18.61,7.36,22.06,13a3,3,0,0,1,.6,2.18,4.47,4.47,0,0,1-1.55,1.88c-3.72,3.19-7.31,6.78-6.58,10.94.54,3.08,3.4,6.1,6.77,8.78,1.57,1.27,3.39,2.73,2.88,4.1-.38,1-1.9,1.61-2.62,2.5-1.65,2.08,1.16,5.42-1.94,6.8-2.66,1.18-7.32-.5-8.91-2.52s-1.31-4.19-1.89-6.29c-.95-3.35-4.29-6.67-9.07-9-3.15-1.53-7.42-3.25-7-5.38a5.67,5.67,0,0,1,.83-1.52c1.48-2.44-.4-5.69-4.35-7.56a119.76,119.76,0,0,1-13.08-6C209.57,275.65,206.18,273.74,203.85,271.46Zm-67.91,20.4c-1-.62-2-1.35-2.15-2.15-.22-1.4,2.27-2.19,3.13-3.42,1.44-2.09-2.08-4.61-5.34-6.39a48.28,48.28,0,0,1-8.49-5.28c-3.49-3-4.65-6.8-3-9.89s6-5.46,11.47-6.23c6-.82,14.16.79,16.8,4.41a10.48,10.48,0,0,1,1.32,3.16c1.62,5,6.86,10.44,15.28,12.43,5.53,1.31,11.3.89,16.93.86a122.25,122.25,0,0,1,31.53,4.05c5.23,1.39,11.09,3.83,11.24,6.95.1,2.13-2.72,3.74-6,4.36a48.78,48.78,0,0,1-10.85.21c-2.11.71-6.25,2.13-7,3.88-.58,1.4.46,3,1.07,4.48s.64,3.27-1.36,4c-1.8.69-4.57.27-6.59-.58a32,32,0,0,1-5.2-3.14,41.44,41.44,0,0,0-16.41-6.14c-8.09-1.22-16.19,0-24.25-1.36A34.64,34.64,0,0,1,135.94,291.86ZM170,373c.9.78,1.6,1.9.52,2.41a4.66,4.66,0,0,1-2,.21c-3.23-.1-6.57.49-9.24-1.62s-3.52-4.46-6.17-6.41c-4.31-3.17-10.89-5.37-17.39-5.8s-12.8.92-16.65,3.56c-1.15.79-2.1,1.67-3.38,2.39-3.71,2.08-10,2.29-15.51,1A29.57,29.57,0,0,1,87,361.81,10,10,0,0,1,84.17,358c-1-3.15,1.79-5.91,5-8.11s7.06-4.21,8.63-7c1.42-2.58.71-5.7-1.92-8.34-4-4.07-12-6.77-15.47-11s-.88-9.05,5.41-10.78c4-1.1,9-1,13.68-.2A58.22,58.22,0,0,1,119.6,320c4.56,2.7,8.65,6.3,7.7,9.64-.87,3.06-5.87,5.24-5.31,8.46.45,2.7,4.68,5,8.74,6.68s8.65,3.36,10.87,5.92c1.86,2.14,1.68,4.52,3,6.77C148.5,364.05,163.17,367,170,373Zm5.93-38.5c-.86,1.82-3.37,3.21-3.77,5.13s.92,4.29-1.75,5.13c-1.77.54-4.17-.07-6.33-.23-4.09-.31-7.49,1-11.23,1.62s-10.19-.63-13.43-2.34a21.63,21.63,0,0,1-6.51-5c-1.65-2.08-1.64-4.45,0-6.2,2.07-2.19,6.63-4,5.13-6.62-.6-1.07-2.12-1.94-3.57-2.77l-10.75-6.06c-2.13-1.22-4.43-2.6-4.75-4.21-.23-1.2.77-2.29,2.13-3.08,4.13-2.34,12-2.19,17.13.31,3.35,1.63,5.42,3.94,8.32,5.83,3.44,2.24,7.95,3.81,12.37,5.33s8.91,3.08,12.39,5.3S177.14,331.9,176,334.46Zm32.57,10.64a2.78,2.78,0,0,1-.37.76c-3.38,3.05-5.26,7.39-11.6,8.19-4.28.55-9.14-1.29-12.2-3.52-3.73-2.75-5.67-6.22-5.22-9.38.42-3,2.9-5.71,2.55-8.8-.27-2.47-2.35-4.94-5-7.14a45.45,45.45,0,0,0-11.12-6.72c-3.91-1.7-8.24-3.06-11.9-4.95s-6.74-4.53-6.52-7.11c.18-2.26,2.91-4,6.36-4.84a35.72,35.72,0,0,1,11.56-.35,66.7,66.7,0,0,1,22.07,6.09c2.48,1.22,4.89,2.69,5.61,4.45.53,1.26.11,2.5,0,3.73-.3,2.55,1,5.62,5,7.2,2.75,1.08,6.12,1.21,9.15,1.92s6.07,2.75,4.79,4.26a10.07,10.07,0,0,1-1.91,1.27c-2.15,1.53-1.07,4-.44,6.11A11.94,11.94,0,0,1,208.53,345.1Zm43.94,4.2c-1.19,1.33-4.72.95-7.45,1-4.76.14-8.39,2.13-10.17,4.54s-2,5.23-2.23,8c-.16,2-.33,4.09-.49,6.15a6.45,6.45,0,0,1-1.09,3.7c-1.71,2.2-6.36,3.23-10.83,2.73s-9.15-2.23-11.45-4.63a8.48,8.48,0,0,1-.68-1c-.79-2.05.24-3.12,1.64-4.87.93-1.15,2.29-2.14,3.28-3.28,2.32-2.65,2.42-5.9,2.5-9.05.14-5.48.26-10.95.4-16.43.06-2,.12-4.17,1.65-5.88,2-2.25,6.53-3.5,11.23-3.12s9.35,2.37,11.53,4.93c1.42,1.7,1.8,3.55,2.64,5.32a19.88,19.88,0,0,0,6.5,7.4C251.32,346.23,253.67,348,252.47,349.3Zm4.59-7.75c-5.63-2.89-3.46-7.93-7.25-11.63-2.69-2.63-7.9-4.12-12.78-5.09a69.71,69.71,0,0,0-11.55-1.43c-3.66-.09-7.24.24-10.92-.12a27.53,27.53,0,0,1-10.38-3.07c-2-1.08-3.68-2.62-3.21-4,.71-2,5.37-2.34,7.35-3.94,2.87-2.33-.82-6-.81-9,0-3.61,5.89-6.18,12.21-5.9s12.55,2.95,16.1,6.28c2.94,2.76,4.24,5.87,6.39,8.81a34.81,34.81,0,0,0,8.83,8.21,27.32,27.32,0,0,0,6.59,3.34c5.72,1.89,12.21,1.51,18.33,1.47a65.91,65.91,0,0,1,13.27,1c4.39.88,8.65,2.51,11.26,4.81,1.82,1.61,3.52,4.12,2.09,5.57s-5,1.24-7.76.14a6.53,6.53,0,0,0-1.54-.26,40.26,40.26,0,0,0-11.29,1c-4.14,1.11-7.25,3.09-11.26,4.31S261,343.57,257.06,341.55ZM286.73,384c-3.25-1.16-7.79-4-10.92-5.19-2.22-.88-5.22-1.75-7.49-2.57S264,374,264,372.6c-.07-1.74,2.58-2.8,4.46-4,4.82-3.07,4.75-8.47-.14-12.38-1.53-1.22-3.46-2.3-4.82-3.59s-2-2.92-.79-4c2.13-1.85,7.51-.8,11.41-1.28,5.46-.67,7.64-4.35,12.69-5.56s11.68.4,17.23,2.16c6,1.91,11.85,4,16.6,6.94s8.21,6.66,8.19,10.32-4.13,7-10.32,7.37c-2.67.17-5.5-.19-8.25-.27s-5.68.2-7.21,1.37c-2.18,1.7-.62,4.36,1.07,6.56s3.43,4.83,1.49,6.63a9.86,9.86,0,0,1-4.28,1.79,24.49,24.49,0,0,1-7.7.74A36.62,36.62,0,0,1,286.73,384Zm80.33,15.65c-.63,2.1-2.7,3.82-4.95,5.37a14.59,14.59,0,0,1-5.71,2.56,23.27,23.27,0,0,1-9.39-.64,34.89,34.89,0,0,1-8.22-3.12c-2.19-1.19-4.21-2.63-6.92-3.27-4.51-1.09-9.47,1-8.72,3.72.65,2.34,4.57,4.35,5.08,6.69.45,2-1.82,3.67-4,5.06a9.13,9.13,0,0,1-11.84-.41,24.51,24.51,0,0,1-3.16-4,25.12,25.12,0,0,0-8.79-6.72l-.73-.2c-3.78-2.44-9.88-2.24-15.12-2.81-1.1-.11-2.41-.37-2.82-1a.87.87,0,0,1,0-.88c1.54-3.29,10.11-4,10.64-7.46.15-1-.43-2.12.07-3,.76-1.39,3.66-1.85,6.32-1.79s5.4.47,7.91.18c3.53-.41,6-2.33,5.71-4.48-.38-3.09-5.59-6.18-4.49-9.08.69-1.76,3.66-2.79,6.78-3.11s6.46-.09,9.69-.14a46.91,46.91,0,0,1,6.27,0c4.31.45,8.07,2.38,11.34,4.28a127.82,127.82,0,0,1,17.8,12.36C364.2,391.41,368.25,395.69,367.06,399.62Zm66.95-4.3c-2.7,1.89-7.41,2.45-11.95,2.63-5.18.2-10.69-1.71-15.92-3.4-4.8-1.56-9.59-3.27-14.43-4.52-1.82-.47-3.52-.72-4.3,1.06-.6,1.37.24,3.18-.88,4.33-1.47,1.48-5.73,1.24-8.44,0s-4.29-3.06-5.94-4.78c-6.92-7.21-17-13.63-28.8-18.39-2.09-.85-4.33-1.69-5.59-2.95a5.07,5.07,0,0,1-1.31-4.2c0-2.41.07-4.83.11-7.26a2,2,0,0,1,.59-1.65c.85-.69,2.65-.73,4.24-.61,6,.45,12.12,2.51,17.89,2.07,4.65-.35,8-2.27,11.65-3.76a56.93,56.93,0,0,1,12.94-3.47c6.1-.91,13.24-1,19.28,1.14s9.87,7,6.51,9.95c-1.08,1-2.77,1.62-3.68,2.65-2,2.21.25,5.27,3.34,7.54,3.66,2.69,8.41,4.82,12.93,7s9,4.65,11.71,7.63S437.23,393.05,434,395.32ZM43.83,318.27a49.67,49.67,0,0,0,2.38,7.78,8.24,8.24,0,0,1,1.58,2.25,6.86,6.86,0,0,1,.64,2.64,60.72,60.72,0,0,0,3.44,5.85,20,20,0,0,0,1-3.24A11.62,11.62,0,0,0,50,322.68,21.38,21.38,0,0,0,43.83,318.27Z" style="fill:#fff;opacity:0.25"></path></g></g><g id="freepik--character-4--inject-3"><g id="freepik--Character--inject-3"><path d="M418.77,302.41a8.71,8.71,0,0,1,.22-2.91,3.29,3.29,0,0,0-.62-2.77,5.06,5.06,0,0,0-2.54-.93,5.74,5.74,0,0,1-2.64-1.23c-.95-.87-4.65-6.48-6.81-9.61-2.37-3.45-4.68-6-7.09-7l27.31-24.5L407,252c0,.31-4.2-.31-7,2.62-2.08,2.18-13.21,16.36-15,20.59a6.78,6.78,0,0,0,2.09,8.46c4.44,3.74,9.27,6.86,14.05,10.15,3.72,2.55,7.85,5.19,10.38,9a17,17,0,0,1,2.79,8.77c0,.75.05,1.62.66,2.06a2,2,0,0,0,1.85,0,6.21,6.21,0,0,0,3.36-8.49A12.4,12.4,0,0,1,418.77,302.41Z" style="fill:#ffc4c3"></path><path d="M418.77,302.41a8.71,8.71,0,0,1,.22-2.91,3.29,3.29,0,0,0-.62-2.77,5.06,5.06,0,0,0-2.54-.93,5.74,5.74,0,0,1-2.64-1.23c-.95-.87-4.65-6.48-6.81-9.61-2.37-3.45-4.68-6-7.09-7l27.31-24.5L407,252c0,.31-4.2-.31-7,2.62-2.08,2.18-13.21,16.36-15,20.59a6.78,6.78,0,0,0,2.09,8.46c4.44,3.74,9.27,6.86,14.05,10.15,3.72,2.55,7.85,5.19,10.38,9a17,17,0,0,1,2.79,8.77c0,.75.05,1.62.66,2.06a2,2,0,0,0,1.85,0,6.21,6.21,0,0,0,3.36-8.49A12.4,12.4,0,0,1,418.77,302.41Z" style="fill:#ffc4c3"></path><path d="M394.91,277.24a10.58,10.58,0,0,1,4.38.68l1.15-1A9.24,9.24,0,0,0,394.91,277.24Z" style="fill:#ffa8a7"></path><path d="M412,293.14c-1.54-2.09-4-5.83-5.65-8.18-.41-.6-.82-1.16-1.23-1.7a29,29,0,0,0-.69,4.52,5.25,5.25,0,0,0,2.34,4.76h0C408.18,293.51,409.44,293.86,412,293.14Z" style="fill:#ffa8a7"></path><path d="M452,279.72a4.83,4.83,0,0,0-3.35-3.77c-1.93-.42-4.73.08-6.6-.57s-2.83-2.35-4.77-2.52a3.34,3.34,0,0,0-2.87,1c-.48.57-.34,1.24-1.5,1.77-.76.34-7.17,1.1-10.94,1.67,1.59-2.73,3.1-5.38,4.12-7,3.3-5.28,2.37-11.46.49-16.84L418.54,252l-8.09,12.49s-1.32,4.29-3.06,10.26c-1.62,5.56-2.57,8.71-2.79,12.16a5.25,5.25,0,0,0,2.33,4.76h0c1.93,1.35,3.61,1.52,9.05-.81l1.18-.53c3.2-1.48,6.56-3,9.73-4.51a79,79,0,0,1,7.89-3.42,42.48,42.48,0,0,1,5.22-1.1c1.35-.19,3.15-.28,4.51-.34a23.65,23.65,0,0,1,6,.38c.44.09,1,.19,1.29-.12A2.12,2.12,0,0,0,452,279.72Z" style="fill:#ffc4c3"></path><path d="M422,277.21s-5,7.82-7.62,11a50.89,50.89,0,0,0,4.21-4.3,42.65,42.65,0,0,0,5-6.89Z" style="fill:#ffa8a7"></path><path d="M381.07,203.86c-.32-2.34-.6-4.69-.74-7a16.14,16.14,0,0,1,.13-4,6.72,6.72,0,0,1,1.79-3.57,3.57,3.57,0,0,1,1.95-1,2.33,2.33,0,0,1,2.06.65,3.32,3.32,0,0,1,.52,2.87,17.19,17.19,0,0,0-.37,2.46c0,.17-.21,1.61.19,1.32a.83.83,0,0,0,.21-.28,2.25,2.25,0,0,1,1.74-1.12.51.51,0,0,1,.4.1c.19.17.09.47,0,.7a23.34,23.34,0,0,0-1.25,3.12,8.21,8.21,0,0,0-.66,2.91,134,134,0,0,0,3.69,13.32s10.37,7.25,16.11,9.18c.73,4.62-1.73,8.49-5.4,9.17,0,0-14.64-9.06-17.05-12.55a9.81,9.81,0,0,1-1.2-3.35c-.72-3.18-1.14-6.44-1.63-9.66C381.38,206,381.22,204.91,381.07,203.86Z" style="fill:#ffc4c3"></path><path d="M427,253.94a50.74,50.74,0,0,1-1.31-8.67l0-13a18.85,18.85,0,0,0-.71-4c-.66-2.25-1.38-3.53-3.71-3.78l-4.15-.65-8.23-.61c-1.13,0-4,.27-5.07.95-2.09,1.37-3.29,3.71-3.9,9-.59,5.12.18,16.94,0,21.45,0,5.33,1.21,12.89,9.24,14.42,0,0,3.52-6.65,10.47-6.83s8.29,3.42,8.29,3.42S429.48,263,427,253.94Z" style="fill:#BA68C8"></path><path d="M421.33,201.24a8.4,8.4,0,0,0-5.06-4.41,24.4,24.4,0,0,0-5.47-.44,11.42,11.42,0,0,1-5.34-1.11,2.31,2.31,0,0,0-1-.41c-.71,0-1.26.72-1.28,1.43a4.08,4.08,0,0,0,.7,2c-1,.79-2.59-.94-3.58-.16a1.6,1.6,0,0,0-.47,1.12,6.1,6.1,0,0,0,.68,3.35,6.58,6.58,0,0,0,3.7,9.85,8.86,8.86,0,0,0,2,5.49,5.11,5.11,0,0,0,2.82,2,13.16,13.16,0,0,0,4.72.23l4.36.13c.93-2.44,4.42-4.4,5.89-8.62C425.28,208,425.16,203.13,421.33,201.24Z" style="fill:#455a64"></path><path d="M441.57,222c-8.08,8.09-11.43,9.21-15.89,15-5.68-.68-7.12-9.28-3.93-12.44,0,0,3-.45,4.12-1.32,3-2.25,9.4-7,11.15-9.18a64.74,64.74,0,0,0,4.26-13.78,2.25,2.25,0,0,0-.39-1.55c-.87-1.33-.72-2.25-1.19-3.64-.37-1.08-.89-1.54-.69-1.74a1.3,1.3,0,0,1,1.76.16,6.84,6.84,0,0,1,1.1,1.49,14.74,14.74,0,0,0-.29-4.55c-.73-2.88-.22-4.19,3.23-2.63,2.16,1,3.84,3.07,3.26,8.56-.16,1.58-.45,4.1-.89,7-.63,4.21-1.44,9.89-2.19,13.36C444.4,219.46,442.73,220.84,441.57,222Z" style="fill:#ffc4c3"></path><path d="M418.43,211.4c.47.28.8.48.9-.34.18-1.54,2.35-1.65,3-.44,1.08,1.93-.09,3.53-1.3,4.44-1.89,1.43-2.78-.06-2.78-.06l-.26,9.12a8.14,8.14,0,0,1-6.18,4.61c-4.49.58-4.42-3.18-2.93-5l0-2.56a11.07,11.07,0,0,1-3.31-.36c-1.43-.4-2.53-1.25-3.43-3.44-.75-1.82-1.22-6.08-.4-12.11.94-7,9.67-7.07,14-4.28S418.43,211.4,418.43,211.4Z" style="fill:#ffc4c3"></path><path d="M419.33,211.06l-.06,2.05h0a2,2,0,0,1-1.94-1.92l-.09-4.29,2.82.53Z" style="fill:#455a64"></path><path d="M408.92,221.19s4.47-.43,6.5-1.71a5.71,5.71,0,0,0,2-2,5.59,5.59,0,0,1-1.16,2.33c-2,2.35-7.38,2.44-7.38,2.44Z" style="fill:#ffa8a7"></path><path d="M409.68,210.73a.94.94,0,1,0,.91-1A1,1,0,0,0,409.68,210.73Z" style="fill:#263238"></path><path d="M411.24,215.06l-3.2,1.31a1.7,1.7,0,0,0,2.23,1A1.82,1.82,0,0,0,411.24,215.06Z" style="fill:#f28f8f"></path><path d="M411.32,216a1.21,1.21,0,0,0-.57-.15,1.32,1.32,0,0,0-1.32,1.32,1,1,0,0,0,.07.3,1.49,1.49,0,0,0,.77-.11A1.75,1.75,0,0,0,411.32,216Z" style="fill:#ffa8a7"></path><path d="M402,209.16l1.9-1.29a1.11,1.11,0,0,0-1.56-.34A1.21,1.21,0,0,0,402,209.16Z" style="fill:#263238"></path><path d="M412.62,209.15l-1.92-1.26a1.1,1.1,0,0,1,1.56-.36A1.21,1.21,0,0,1,412.62,209.15Z" style="fill:#263238"></path><path d="M402.85,210.77a.94.94,0,1,0,1.87-.06.94.94,0,0,0-1-.94A1,1,0,0,0,402.85,210.77Z" style="fill:#263238"></path><polygon points="407.62 208.88 407.49 214.42 404.55 213.89 407.62 208.88" style="fill:#ffa8a7"></polygon><path d="M417.28,208.65s-3.55-.2-3.79-4.82c0,0-5.85,4.78-11.56.62,0,0-.81-4.08,3.89-5.71s11-.56,13.13,2.82S420.31,209.68,417.28,208.65Z" style="fill:#455a64"></path><path d="M424.82,199.17c1.78-.31,3.61,0,5.41-.21s3.73-1,4.43-2.62a2.89,2.89,0,0,1,1,2.46,2.93,2.93,0,0,1-1.48,2.22,4.55,4.55,0,0,0,4.15-2.59,5.73,5.73,0,0,1-.82,6.06c-1.38,1.66-3.54,2.13-5.7,2A10.83,10.83,0,0,1,426,204.7a4.88,4.88,0,0,0-2.55-1.09c-.36,0-.71,0-1.07,0a1.59,1.59,0,0,1-1-.3c-.84-.72-.05-2.27.57-2.85A5.76,5.76,0,0,1,424.82,199.17Z" style="fill:#455a64"></path><path d="M415.45,192.64c1.67-.69,3.79-.62,5.47-1.28s3.32-2,3.54-3.75a2.85,2.85,0,0,1,.83,4.64,4.53,4.53,0,0,0,3.28-3.63,5.72,5.72,0,0,1,.88,6,5.58,5.58,0,0,1-4.39,3.32,12.13,12.13,0,0,1-6.41-.71c-.88-.31-2.13-.75-3,.4-.21.3-.2-.38-.54-.29s-.57-.07-.9-.21c-1-.46-1.59.22-1.55-.63A4.07,4.07,0,0,1,415.45,192.64Z" style="fill:#455a64"></path></g></g><g id="freepik--character-3--inject-3"><g id="freepik--character--inject-3"><path d="M340.77,359.14c.33.91-.72,3.36-4.85,5.09s-8.35,2.62-9.15.95-1.33-5.63,1.4-7.35,7.2-3.46,9.53-1.93A8.52,8.52,0,0,1,340.77,359.14Z" style="fill:#37474f"></path><path d="M331.92,335.13c2.24,5.37,4.09,10.79,6.16,16.6a82.74,82.74,0,0,1,3.18,11.85c.34,1.64-.27,4.89-.52,6.57-1.05,6.77-2,13.56-3,20.35-.53,3.73-1.06,7.38.12,11.06a16.57,16.57,0,0,0,4.07,6.66c.53.54,1.42,1.11,1.3,2s-1,1.15-1.71,1.31a7,7,0,0,1-6.85-2c-1.3-1.63-1.59-3.93-3.05-5.41-1-1-2.51-1.64-2.85-3a2.57,2.57,0,0,1-.06-.4c-.1-1.43,1-2.61,1.36-3.92a12.21,12.21,0,0,0,0-3.62c-.19-3.8-.47-7.59-.87-11.37-.74-7-1.78-7.33.38-13.1l-10.75-21.93Z" style="fill:#b16668"></path><path d="M320.41,342.61c.81,4.74,1,10.68,1.34,14.61.22,2.93.61,5.75.92,12.2.09,1.67-1.23,4.12-3.13,6.39-4.4,5.26-9,10.67-13.21,16.06-2.32,2.95-4.61,5.85-5.44,9.62a16.76,16.76,0,0,0-.3,5.19,16.43,16.43,0,0,0,.48,2.61c.19.74.67,1.68.12,2.38s-1.4.51-2.12.27a7,7,0,0,1-4.91-5.2c-.31-2.06.6-4.19.07-6.21-.35-1.36-1.34-2.68-1-4a3,3,0,0,1,.15-.38c.63-1.28,2.17-1.75,3.14-2.71a12,12,0,0,0,1.8-3.13c1.74-3.39,3.24-6.46,4.79-9.93,2.87-6.4,2.53-7.81,6.47-11.93,0,0-3-12.18-4.37-17.25-1-3.77-.73-7.66-.21-14.35l.62-.84Z" style="fill:#b16668"></path><path d="M305,336.81c-.72,3.81-1.37,9-.65,13.13s4.19,15.75,4.19,15.75,8.24,3.92,14.72-.67c-.1-.79-.79-8.87-.79-8.87l4.34,9s-.4-3.6,6-6.5c5.36-2.42,8,.46,8,.46s-6.29-18.49-7.9-23.44Z" style="fill:#455a64"></path><path d="M322.43,356.15l-.59-7.37s4.59-2,6.84-4.76c0,0-.61,3.2-5.06,6.06l-.33,6.47,1.06,3.59Z" style="fill:#37474f"></path><path d="M365,325.8a24,24,0,0,0,3.49-.61,6.87,6.87,0,0,0,2.85-1.34,6.17,6.17,0,0,0,1.73-2.59c.21-.63.32-1.3.56-1.93a4.64,4.64,0,0,0,.38-1.18,1,1,0,0,0-.5-1,1.5,1.5,0,0,0-1.17.19,28.64,28.64,0,0,1-5.92,2c-.23.05-.54.07-.65-.14s0-.44.19-.62a4.29,4.29,0,0,0,.81-2,1.26,1.26,0,0,0,0-.55.5.5,0,0,0-.39-.35.78.78,0,0,0-.53.27l-.83.75a4.61,4.61,0,0,1-.76.64l-1.69.85a8,8,0,0,1-2.8,1.16c-.72.05-10.88-.45-13.5-1.07,0,0-7.3-8.07-11.3-11.69-3.68-3.32-6-2.49-11.73-1.72l5.54,9.75c5.6,5.4,10.75,9.74,12.5,10.83a7.15,7.15,0,0,0,3.42.93c3.3.17,6.63,0,9.94,0l3.21-.07C360.18,326.19,362.58,326.06,365,325.8Z" style="fill:#b16668"></path><path d="M331,309.62a7.92,7.92,0,0,1,8.37-2.27s6.08,5.07,5.84,9.86L344,315.86a7.73,7.73,0,0,0-5,2.36c-2.3,2.33-2.08,3.85-2.08,3.85l1.41,1.17a4.26,4.26,0,0,1-3-.21c-1.8-.72-6.7-5.06-6.7-5.06S326.37,314.47,331,309.62Z" style="fill:#BA68C8"></path><path d="M331,309.62a7.92,7.92,0,0,1,8.37-2.27s6.08,5.07,5.84,9.86L344,315.86a7.73,7.73,0,0,0-5,2.36c-2.3,2.33-2.08,3.85-2.08,3.85l1.41,1.17a4.26,4.26,0,0,1-3-.21c-1.8-.72-6.7-5.06-6.7-5.06S326.37,314.47,331,309.62Z" style="opacity:0.1"></path><path d="M343.63,314.16c-2.65-.78-8.15,3.85-9.39,2-1-1.51-1.5-5.05-2.45-7.24a9.6,9.6,0,0,0-.75.7c-4.67,4.85-2.43,8.35-2.43,8.35s4.9,4.34,6.7,5.06a4.26,4.26,0,0,0,3,.21l-1.41-1.17s-.22-1.52,2.08-3.85a7.73,7.73,0,0,1,5-2.36l1.22,1.35a6,6,0,0,0-.16-1.68A2.25,2.25,0,0,0,343.63,314.16Z" style="opacity:0.1"></path><path d="M307.21,306.21c-2.89.59-3.76,2-4.1,4.57a19.15,19.15,0,0,0,.66,7l1.14,12.61,0,6.39c3.25,4.2,19.39,5,27.91-1.11,0,0-1-16.71-1.58-21-1-7.4-2.92-10.26-6.48-10l-10.27.68A46.69,46.69,0,0,0,307.21,306.21Z" style="fill:#b16668"></path><path d="M331.29,285.59a7.59,7.59,0,1,1-7.8-7.64A7.73,7.73,0,0,1,331.29,285.59Z" style="fill:#263238"></path><path d="M308.32,292.09a70.79,70.79,0,0,0,2,7.11,2.83,2.83,0,0,0,1.65,1.25l-.21-4.33Z" style="fill:#263238"></path><path d="M309.71,283.22a3,3,0,0,0-2.49,1c-1,1.13-.34,4.56,1.1,7.91l2.47.21Z" style="fill:#263238"></path><path d="M311.53,292.28c-.49.31-1.22-.62-1.85-1.24a2.15,2.15,0,0,0-3.58.68c-1,2.16,1,4.93,2.6,5.38,2.73.77,3.09-1,3.09-1l.48,9.74a8.71,8.71,0,0,0,6.7,4.8c4.81.51,4.65-3.5,3-5.4l-.08-2.73a11.74,11.74,0,0,0,3.54-.45c1.51-.46,2.64-1.41,3.58-3.76,1.26-3.16,1.34-6.58.17-12.95-1.37-7.38-10.5-7.34-15.09-4.26S311.53,292.28,311.53,292.28Z" style="fill:#b16668"></path><path d="M313,287.3c-.37,2.15-.63,5.77-1.47,5.81-.24,0-1.24-1.53-1.87-2.07-.28-.24-.3-.79-.33-1.13a26.16,26.16,0,0,1-.08-3.86,17.57,17.57,0,0,1,.2-4.23,4.53,4.53,0,0,1,1.94-2.45c2-1.29,4.73-1.23,7-1.75a23.3,23.3,0,0,0,7.58-3l.7-.45a1.12,1.12,0,0,1,.69-.23.74.74,0,0,1,.5.36,1.77,1.77,0,0,1,.2.6,6.64,6.64,0,0,1,.05,1.94,3.34,3.34,0,0,1-.39,1.64l1.63-1.09a.6.6,0,0,1,.38-.13c.23,0,.32.31.35.54a5.79,5.79,0,0,1-2.36,5,10.43,10.43,0,0,1-5.39,1.92c-1.93.2-3.87.08-5.8.1a5,5,0,0,0-2.45.37A3,3,0,0,0,313,287.3Z" style="fill:#263238"></path><path d="M309.73,283.77l-3-1.52a1.65,1.65,0,0,1,2.25-.81A1.79,1.79,0,0,1,309.73,283.77Z" style="fill:#263238"></path><path d="M321.91,302.53s-4.78-.36-7-1.69a5.94,5.94,0,0,1-2.21-2.06,6,6,0,0,0,1.29,2.47C316.22,303.71,322,304,322,304Z" style="fill:#9a4a4d"></path><path d="M319.9,291a1,1,0,1,1-1-1A1,1,0,0,1,319.9,291Z" style="fill:#263238"></path><path d="M318.51,288l-2.1,1.24a1.28,1.28,0,0,1,.45-1.71A1.19,1.19,0,0,1,318.51,288Z" style="fill:#263238"></path><path d="M319.48,296.35l4,1.36a2.07,2.07,0,0,1-2.64,1.38A2.2,2.2,0,0,1,319.48,296.35Z" style="fill:#9a4a4d"></path><path d="M320.47,297.5a1.66,1.66,0,0,0-.94.34,2.15,2.15,0,0,0,1.29,1.25,2,2,0,0,0,1.36,0A1.66,1.66,0,0,0,320.47,297.5Z" style="fill:#f28f8f;opacity:0.6000000000000001"></path><path d="M328.39,288.23l-2-1.43a1.17,1.17,0,0,1,1.68-.31A1.28,1.28,0,0,1,328.39,288.23Z" style="fill:#263238"></path><path d="M327.94,290.25a1,1,0,1,1-2,.05,1,1,0,0,1,1-1.06A1,1,0,0,1,327.94,290.25Z" style="fill:#263238"></path><polygon points="322.61 289.76 323.05 295.1 325.82 294.06 322.61 289.76" style="fill:#9a4a4d"></polygon><path d="M285.75,348.14a23,23,0,0,0,.47,3.51,6.76,6.76,0,0,0,1.2,2.9,6.22,6.22,0,0,0,2.52,1.84c.62.24,1.29.38,1.91.65a4.92,4.92,0,0,0,1.16.43,1,1,0,0,0,1.07-.46,1.48,1.48,0,0,0-.14-1.17,29.23,29.23,0,0,1-1.74-6c0-.24,0-.54.17-.65s.44.07.61.22a4.36,4.36,0,0,0,1.94.89,1.28,1.28,0,0,0,.55,0,.5.5,0,0,0,.36-.38.79.79,0,0,0-.24-.54l-.71-.86a4.17,4.17,0,0,1-.61-.79c-.27-.57-.52-1.15-.79-1.73a8.24,8.24,0,0,1-1-2.84c0-.72.91-10.85,1.65-13.44,0,0,8.37-7,12.15-10.79,3.48-3.54,3.07-7.21,2.55-13-7.26.72-7.64,1.94-11.44,6.34-3.15,3.67-9.05,10.46-10.22,12.16a7.2,7.2,0,0,0-1.07,3.38c-.31,3.3-.32,6.63-.4,9.93,0,1.08-.06,2.15-.07,3.22C285.57,343.35,285.59,345.75,285.75,348.14Z" style="fill:#b16668"></path><path d="M307.08,320.71c.63-1.7.61-5.27-3.08-8.82a8.09,8.09,0,0,0-7.36-2.27,14.89,14.89,0,0,0-6.53,9.08,1.53,1.53,0,0,0,.31,1.67l1.41-1.67s2.31-.34,4.85,2.27a7.32,7.32,0,0,1,1.81,5l-1.13,1S303.6,327.65,307.08,320.71Z" style="fill:#BA68C8"></path><path d="M307.08,320.71c.63-1.7.61-5.27-3.08-8.82a8.09,8.09,0,0,0-7.36-2.27,14.89,14.89,0,0,0-6.53,9.08,1.53,1.53,0,0,0,.31,1.67l1.41-1.67s2.31-.34,4.85,2.27a7.32,7.32,0,0,1,1.81,5l-1.13,1S303.6,327.65,307.08,320.71Z" style="opacity:0.1"></path><path d="M297.36,327s6.24.69,9.72-6.25c.57-1.54.6-4.6-2.12-7.79.72,2.66-.36,7.44-3.22,7.52s-7.72-3.2-9.48-3.12a2.12,2.12,0,0,0-2.09,1.14,2.1,2.1,0,0,1-.06.24,1.53,1.53,0,0,0,.31,1.67l1.41-1.67s2.31-.34,4.85,2.27a7.32,7.32,0,0,1,1.81,5Z" style="opacity:0.1"></path><path d="M328.3,366l1.28,2.62c-2.16,5.77-1.12,6.13-.38,13.1.4,3.78.68,7.57.87,11.37a12.21,12.21,0,0,1,0,3.62c-.36,1.31-1.46,2.49-1.36,3.92a2.57,2.57,0,0,0,.06.4c.34,1.37,1.86,2,2.85,3,1.46,1.48,1.75,3.78,3.05,5.41a7,7,0,0,0,6.85,2c.75-.16,1.6-.55,1.71-1.31s-.77-1.45-1.3-2a16.57,16.57,0,0,1-4.07-6.66c-1.18-3.68-.65-7.33-.12-11.06,1-6.79,1.93-13.58,3-20.35.25-1.68.86-4.93.52-6.57-.24-1.13-.46-2.15-.68-3.11a1.89,1.89,0,0,0,.19-1.33s-6.29-18.49-7.9-23.44c0,0-.28-4.74-.63-9.81h0c.09,3.08-2.84,6-10.82,7.12-8.7,1.2-15.49-1-16.65-4.19l.14,1.6,0,6.39c-.72,3.81-1.37,9-.65,13.13s4.19,15.75,4.19,15.75l.51.21c.38,1.53.62,2.52.62,2.52-3.94,4.12-3.61,5.53-6.47,11.93-1.55,3.47-3.05,6.54-4.79,9.93a12,12,0,0,1-1.8,3.13c-1,1-2.51,1.43-3.14,2.71a3,3,0,0,0-.15.38c-.39,1.35.6,2.67,1,4,.53,2-.38,4.15-.07,6.21a7,7,0,0,0,4.91,5.2c.72.24,1.65.33,2.12-.27s.07-1.64-.12-2.38a16.43,16.43,0,0,1-.48-2.61,16.76,16.76,0,0,1,.3-5.19c.83-3.77,3.12-6.67,5.44-9.62,4.24-5.39,8.81-10.8,13.21-16.06,1.9-2.27,3.22-4.72,3.13-6.39-.07-1.48-.15-2.77-.22-3.92.25-.15.51-.3.77-.48-.1-.79-.79-8.87-.79-8.87l4.34,9A1.8,1.8,0,0,0,328.3,366Z" style="fill:#BA68C8;opacity:0.4"></path><g id="freepik--Water--inject-3"><path d="M361.41,344.82c9.37-3.67,11.44-7.67,13.18-14.45.77-3,6.44-4,2.61,4.64S361.41,344.82,361.41,344.82Z" style="fill:#fff"></path><path d="M362.7,342.55a15.37,15.37,0,0,0,5.37-4c1.88-2.51,1.84-5.74-.73-4.41C365.09,335.27,367.27,339,362.7,342.55Z" style="fill:#fff"></path></g></g></g><g id="freepik--character-2--inject-3"><g id="freepik--character--inject-3"><path d="M256.48,275.79c1.19,7.34.57,8.43,0,11.47s-5.3,20.39-5.3,20.39a22.83,22.83,0,0,1,6.32,7.92c1.5,3,4.1,8.58,6.06,12.26a5.11,5.11,0,0,0,3.25,3.06,5.5,5.5,0,0,1,3,2.52c.61,1.48.09,2.95-.29,4.41a14.12,14.12,0,0,0-.52,5.88,13,13,0,0,1,.53,3.73,6.2,6.2,0,0,1-1.91,3.34,10,10,0,0,1-5.06,3.06,1.78,1.78,0,0,1-1.61-.28,2,2,0,0,1-.34-1.54c.09-1.53.08-3.1.26-4.62a12.7,12.7,0,0,0-.38-3.77,26.69,26.69,0,0,0-2.62-7.8c-1.78-3.25-4.47-6.06-6.91-8.82-8.11-9.15-11.13-11.35-13.19-15.19s-.89-29.13-.89-29.13Z" style="fill:#f28f8f"></path><path d="M251.66,278.71c-.32,4.81-8.18,15-8.18,15l-12.64,18.58a23.56,23.56,0,0,1,3.16,10c.32,3.47.78,9.79,1.31,14.06.24,1.94.43,2.75,2,4.16a5.76,5.76,0,0,1,2,3.54c0,1.66-1,2.89-1.92,4.15a14.5,14.5,0,0,0-2.68,5.49,13.27,13.27,0,0,1-.87,3.78,6.39,6.39,0,0,1-3.08,2.52,10.36,10.36,0,0,1-6,1.08,1.81,1.81,0,0,1-1.45-.87,2.06,2.06,0,0,1,.24-1.61c.65-1.45,1.23-3,2-4.36a12.84,12.84,0,0,0,1-3.78,27.26,27.26,0,0,0,.36-8.5c-.51-3.79-2.06-7.5-3.39-11.06-4.44-11.84-6.53-15.07-7.1-19.54S227.3,283,227.3,283Z" style="fill:#ffa8a7"></path><path d="M227.3,282.07a28,28,0,0,0,13.6,2.7c10.58-.64,14.6-6.08,15.66-8.22,1.48,6.24.86,9.75-.92,16.74-1.63,6.37-3.39,11.49-3.39,11.49s-4.38,4.46-15.72,1.83v-2.18l-3.05,5a14.77,14.77,0,0,1-9.85-2.16c-5.33-3.14-5.47-5.52-5.47-5.52Z" style="fill:#BA68C8"></path><path d="M244.48,292.36l-7.95,12.07v2.18a29.79,29.79,0,0,0,3.15.57v-2.44l6.06-9.58c7.11-2.21,7.56-6.78,7.56-6.78A13.76,13.76,0,0,1,244.48,292.36Z" style="opacity:0.15"></path><path d="M231.19,217.85a22.4,22.4,0,0,0-.5-4.52,24.13,24.13,0,0,1-.27-4.47,8.21,8.21,0,0,1,.74-3.25,8,8,0,0,1,4.39-3.47,3.49,3.49,0,0,0,1.84-.94c.27-.36.44-.89.88-1a.85.85,0,0,1,.84.66c.41,1.18-.39,2.6-.78,3.7a23.36,23.36,0,0,0-1,4c-.06.36,0,.84.3.94.67.21,1.58-1,2-1.44a2.33,2.33,0,0,1,1.93-.92c.24,0,.49.19.49.42a.64.64,0,0,1-.11.3c0,.25-.4.67-.53.9l-.6,1c-.39.66-.78,1.33-1.18,2-.71,1.22-1.88,2.92-1.86,4.41,0,.76,1.83,12.8,2.72,15.5,0,0,4.78,5.31,9,9.34,3.06,2.91,7.56,4.37,6.74,12.42-.48,5.44-3.73,7.2-6.25,4.35-3.82-4.31-11.7-13.37-16.39-19.39-2-2.62-2.23-3.16-2.3-6.24C231.17,228.16,231.17,219,231.19,217.85Z" style="fill:#f28f8f"></path><path d="M255.76,250.37c-1-2.8-2.29-6.27-7.51-5.68a68,68,0,0,0-15.73,3.78c-3.29,1.18-5.25,1.88-4.8,10.75s.58,18.91-.42,22.85c4.24,3.66,14.25,4.07,19,3,9.89-2.16,10.53-6.63,10.53-6.63a96.32,96.32,0,0,1-1-11.73C255.59,260.08,256.83,253.28,255.76,250.37Z" style="fill:#ffa8a7"></path><polygon points="235.61 240.98 236.69 251.09 245.74 251.1 244.69 239.65 235.61 240.98" style="fill:#ffa8a7"></polygon><path d="M227.8,261.18c0,.23,0,1.37,0,1.91,2.34,1.15,2.91,4.1,2.91,4.1s-.29-4.15-2.95-6Z" style="fill:#f28f8f"></path><path d="M229.36,229.25s-2.59,3.45-2.34,3.82,2,.79,2,.79Z" style="fill:#f28f8f"></path><path d="M236.4,221.37c-4.68-.23-6.66,1.83-7.5,8.5-.87,7,.14,9.74,1.13,10.74.67.68,4.58,1,6.59.69,2.51-.44,8.2-1.83,11-5.19,3.32-3.94,4.45-9.51,1.28-12C244.47,220.56,238.38,221.46,236.4,221.37Z" style="fill:#ffa8a7"></path><path d="M232.28,224.7c-.21,0-.62,1.18.25,2a2.11,2.11,0,0,0,2.19.24,4.71,4.71,0,0,0-.58,2.85c.21.71.7,1.08,1.56,1.46,0,0,.9-2.53,3.36-2.05s2.65,3.3,1,4.9S237,235,237,235s-.14,3.7,1.6,5.91a14.39,14.39,0,0,0,6,.25c2.42-.3,4.57-2.53,6.28-5.16,3.55-5.46,5.12-11.26.93-13.12a4.94,4.94,0,0,0-2.43-5.66,6.38,6.38,0,0,0-5.88-.47c-.13.06-.65-1.06-.7-1.14a4.05,4.05,0,0,0-1.51-1.26,6.52,6.52,0,0,0-2.77-.61,6.45,6.45,0,0,0-3.17.67,3.54,3.54,0,0,0-1.87,2.28c0-.23-1.78-.31-1.94-.33a2.88,2.88,0,0,0-1.44.23,4.32,4.32,0,0,0-2.69,4.94,4.2,4.2,0,0,0,.54,1.4A5.08,5.08,0,0,0,232.28,224.7Z" style="fill:#263238"></path><path d="M251.86,223.22l3-1.52a1.67,1.67,0,0,0-3,1.52Z" style="fill:#263238"></path><path d="M204.79,229.85a22.6,22.6,0,0,0-.95-4.45,24,24,0,0,1-.72-4.42,8.08,8.08,0,0,1,.41-3.31,7.92,7.92,0,0,1,4-3.89,3.6,3.6,0,0,0,1.74-1.13c.23-.38.34-.93.78-1a.86.86,0,0,1,.9.57c.53,1.14-.13,2.63-.4,3.76a22.81,22.81,0,0,0-.61,4c0,.36,0,.84.4.91.68.14,1.46-1.2,1.8-1.63a2.37,2.37,0,0,1,1.84-1.12c.23,0,.5.14.52.38a.54.54,0,0,1-.08.3,3.36,3.36,0,0,1-.43.95l-.5,1.08-1,2.1c-.59,1.28-1.58,3.1-1.42,4.57.09.76,3.12,12.55,4.28,15.15,0,0,2.26,1.12,8,3.31a40,40,0,0,0,5.69,1.49,13.56,13.56,0,0,0,4.54.63c.85,4.95-2.26,16.34-5.06,13.76-4.23-3.9-10.87-7.09-18.4-11.48-2.09-1.22-3.23-2-3.69-5C206,241.92,204.88,231,204.79,229.85Z" style="fill:#ffa8a7"></path><path d="M269.79,333.41a5.5,5.5,0,0,0-3-2.52,5.11,5.11,0,0,1-3.25-3.06c-2-3.68-4.56-9.23-6.06-12.26a22.83,22.83,0,0,0-6.32-7.92l.69-2.53a4.49,4.49,0,0,0,.4-.34s1.76-5.12,3.39-11.49c1.74-6.81,2.36-10.33,1-16.28-.06-.38-.12-.78-.19-1.2-.13-1.16-.28-2.7-.41-4.61,0,.41.12,5.27-8.37,7.51-10.52,2.77-17.71.73-19.78-1.66a26.87,26.87,0,0,1-.62,5l-9.14,19.65a2.59,2.59,0,0,0,.3.88c-1.35,3.94-2.28,7.31-2.1,8.73.57,4.47,2.66,7.7,7.1,19.54,1.33,3.56,2.88,7.27,3.39,11.06a27.26,27.26,0,0,1-.36,8.5,12.84,12.84,0,0,1-1,3.78c-.73,1.4-1.31,2.91-2,4.36a2.06,2.06,0,0,0-.24,1.61,1.81,1.81,0,0,0,1.45.87,10.36,10.36,0,0,0,6-1.08,6.39,6.39,0,0,0,3.08-2.52,13.27,13.27,0,0,0,.87-3.78,14.5,14.5,0,0,1,2.68-5.49c.91-1.26,2-2.49,1.92-4.15a5.76,5.76,0,0,0-2-3.54c-1.57-1.41-1.76-2.22-2-4.16-.53-4.27-1-10.59-1.31-14.06a23.56,23.56,0,0,0-3.16-10l1.89-2.78a6.2,6.2,0,0,0,.75-.1l3.05-5v2.18a2.3,2.3,0,0,0,.28.06,15.89,15.89,0,0,0,.94,5.14c2.06,3.84,5.08,6,13.19,15.19,2.44,2.76,5.13,5.57,6.91,8.82a26.69,26.69,0,0,1,2.62,7.8,12.7,12.7,0,0,1,.38,3.77c-.18,1.52-.17,3.09-.26,4.62a2,2,0,0,0,.34,1.54,1.78,1.78,0,0,0,1.61.28,10,10,0,0,0,5.06-3.06,6.2,6.2,0,0,0,1.91-3.34,13,13,0,0,0-.53-3.73,14.12,14.12,0,0,1,.52-5.88C269.88,336.36,270.4,334.89,269.79,333.41Z" style="fill:#BA68C8;opacity:0.4"></path></g></g><g id="freepik--character-1--inject-3"><g id="freepik--character--inject-3"><path d="M135.4,283.26c3.13,3.66,5.57,6.33,7.85,9.54a76.63,76.63,0,0,1,7.26,11c.77,1.48.24,4.56,0,6.25-.95,6.79-1.83,13.59-2.7,20.39-.48,3.73-.95,7.39.27,11.05a16.57,16.57,0,0,0,2.41,4.6,16,16,0,0,0,1.75,2c.55.53,1.44,1.09,1.33,2s-.94,1.15-1.69,1.32a7,7,0,0,1-6.88-2c-1.32-1.6-1.64-3.9-3.12-5.36-1-1-2.53-1.61-2.89-3a1.76,1.76,0,0,1-.07-.4c-.12-1.42,1-2.62,1.31-3.94a11.9,11.9,0,0,0-.07-3.62q-.36-5.69-1-11.36c-.83-7-1.87-7.3.21-13.1l-15.82-14.63Z" style="fill:#ffbda7"></path><path d="M128.69,295.14c2.05-1.41,4.74-5.64,5.29-7.73l-.93-2-9.53,8.67,15.82,14.63-10.4-11.59Z" style="fill:#f0997a"></path><path d="M135.4,283.26c3.13,3.66,5.57,6.33,7.85,9.54a76.63,76.63,0,0,1,7.26,11c.77,1.48.24,4.56,0,6.25-.95,6.79-1.83,13.59-2.7,20.39-.48,3.73-.95,7.39.27,11.05a16.57,16.57,0,0,0,2.41,4.6,16,16,0,0,0,1.75,2c.55.53,1.44,1.09,1.33,2s-.94,1.15-1.69,1.32a7,7,0,0,1-6.88-2c-1.32-1.6-1.64-3.9-3.12-5.36-1-1-2.53-1.61-2.89-3a1.76,1.76,0,0,1-.07-.4c-.12-1.42,1-2.62,1.31-3.94a11.9,11.9,0,0,0-.07-3.62q-.36-5.69-1-11.36c-.83-7-1.87-7.3.21-13.1l-15.82-14.63Z" style="fill:#BA68C8;opacity:0.30000000000000004"></path><path d="M124.31,284.79c1.53,4.56,2.68,10.4,3.58,14.23a75.84,75.84,0,0,1,2.61,12.92c.16,1.67-1.49,4.32-2.34,5.8Q123,326.65,118,335.63c-1.84,3.28-3.65,6.49-3.89,10.35a16.66,16.66,0,0,0,.51,5.17,15.85,15.85,0,0,0,.87,2.51c.31.7.93,1.55.49,2.33s-1.3.72-2.06.6a7,7,0,0,1-5.64-4.38c-.63-2-.07-4.24-.89-6.15-.56-1.29-1.75-2.44-1.57-3.83a2.59,2.59,0,0,1,.09-.4c.42-1.36,1.88-2.06,2.69-3.16a12.13,12.13,0,0,0,1.29-3.38c1.2-3.61,2.31-7.25,3.3-10.92,1.84-6.76,1-7.47,5.1-12.07,0,0-6-12.15-8.2-16.94A17.1,17.1,0,0,1,109,283.3s1-2.79,1.35-4.09Z" style="fill:#ffbda7"></path><path d="M124.31,284.79c1.53,4.56,2.68,10.4,3.58,14.23a75.84,75.84,0,0,1,2.61,12.92c.16,1.67-1.49,4.32-2.34,5.8Q123,326.65,118,335.63c-1.84,3.28-3.65,6.49-3.89,10.35a16.66,16.66,0,0,0,.51,5.17,15.85,15.85,0,0,0,.87,2.51c.31.7.93,1.55.49,2.33s-1.3.72-2.06.6a7,7,0,0,1-5.64-4.38c-.63-2-.07-4.24-.89-6.15-.56-1.29-1.75-2.44-1.57-3.83a2.59,2.59,0,0,1,.09-.4c.42-1.36,1.88-2.06,2.69-3.16a12.13,12.13,0,0,0,1.29-3.38c1.2-3.61,2.31-7.25,3.3-10.92,1.84-6.76,1-7.47,5.1-12.07,0,0-6-12.15-8.2-16.94A17.1,17.1,0,0,1,109,283.3s1-2.79,1.35-4.09Z" style="fill:#BA68C8;opacity:0.30000000000000004"></path><path id="freepik--Shadow--inject-3" d="M144.24,275.65c-12.32-6.48-32.3-6.48-44.63,0-11.33,6-11.32,19.2,0,25.15,12.33,6.49,32.31,6.49,44.63,0C155.57,294.85,155.57,281.62,144.24,275.65Z" style="opacity:0.1"></path><path d="M144.66,269c-12.32-7.11-32.3-7.11-44.62,0-5.34,3.08-8.16,7.93-8.47,12.88h16.56a10.41,10.41,0,0,1,3.31-2.85c6-3.47,15.79-3.47,21.82,0a10.41,10.41,0,0,1,3.31,2.85h16.56C152.82,276.88,150,272,144.66,269Z" style="fill:#455a64"></path><path d="M133.26,272.08c-6-3.47-15.79-3.47-21.82,0-4.56,2.64-5.67,6.51-3.31,9.75a10.41,10.41,0,0,1,3.31-2.85c6-3.47,15.79-3.47,21.82,0a10.41,10.41,0,0,1,3.31,2.85C138.93,278.59,137.82,274.72,133.26,272.08Z" style="fill:#37474f"></path><path d="M116.86,250.27l4.24-.23a12.25,12.25,0,0,0,5.78-.74c1.37-.53,3.47-1.43,4-2.88a21.2,21.2,0,0,0-.07-12.37,22.26,22.26,0,0,0-2.83-6.07c-1.13-1.71-4.25-2-6.15-1.91-6.54.16-12.18,5.55-12,12.08l0,1.61C110,246.63,115.14,247.28,116.86,250.27Z" style="fill:#263238"></path><path d="M118,249.91a3.4,3.4,0,0,0,.36-.68,1.85,1.85,0,0,0-.31-2,12.21,12.21,0,0,0-1.72-1.8,4.78,4.78,0,0,0-1.62-1c-2.68-.87-4.45,2.68-3.9,4.88a2.64,2.64,0,0,0-2.19.3,2.61,2.61,0,0,0-1.18,1.88,3.18,3.18,0,0,0-3.55,1.31,3.4,3.4,0,0,0-4,.44s-2.31-2.1-4.28-.7a3.71,3.71,0,0,0-1.83-1.38c-1.17-.36-2.93,0-3.46,1.15a1.52,1.52,0,0,1,1.89.3c.7.94,1.52,1.85,3,1.06A2.56,2.56,0,0,0,96.5,255a3.85,3.85,0,0,0,1.56.45,3.1,3.1,0,0,0,1.55-.33,3,3,0,0,0,4.51.68,4.11,4.11,0,0,0,2.6.76,2,2,0,0,0,1.86-1.74,2.39,2.39,0,0,0,1.17.17,3.82,3.82,0,0,0,1.2-.2,3.44,3.44,0,0,0,1.86-1.38,3.31,3.31,0,0,0,.52-1.77,14.52,14.52,0,0,0,1.73-.11,5.59,5.59,0,0,0,2-.73A3.69,3.69,0,0,0,118,249.91Z" style="fill:#263238"></path><path d="M152.54,233.36c.26-2.29.48-4.58.56-6.89a16.18,16.18,0,0,0-.24-3.93A6.5,6.5,0,0,0,151,219.1a3.53,3.53,0,0,0-1.93-1,2.26,2.26,0,0,0-2,.68,3.26,3.26,0,0,0-.43,2.82,17.44,17.44,0,0,1,.42,2.38c0,.17.25,1.56-.16,1.29a.86.86,0,0,1-.2-.26,2.2,2.2,0,0,0-1.72-1,.51.51,0,0,0-.4.1c-.17.17-.07.47,0,.68a23.5,23.5,0,0,1,1.29,3,8.08,8.08,0,0,1,.71,2.82,127.61,127.61,0,0,1-3.26,13.07S133.49,251,127.94,253c-.59,4.52,1.91,8.23,5.5,8.8,0,0,14-9.2,16.29-12.65a9.37,9.37,0,0,0,1.09-3.3c.62-3.12,1-6.3,1.35-9.45C152.3,235.4,152.42,234.38,152.54,233.36Z" style="fill:#ffbda7"></path><path d="M113.84,254.45c-2.26.31-2.92,1.57-3.51,3.78-.29,1.1-2.15,2.27-2.21,3.76l3.15,12.93L109,283.3c2.14,4.93,11.71,4.6,17.68,10.54,3.6-.28,7.69-5.29,8.68-10.58-.28-4.38.17-15.91-.53-20.9s-2-7.36-4-8.64c-1-.64-3.86-.84-5-.8l-8,.8Z" style="fill:#BA68C8"></path><path d="M113.84,254.45c-2.26.31-2.92,1.57-3.51,3.78-.29,1.1-2.15,2.27-2.21,3.76l3.15,12.93L109,283.3c2.14,4.93,11.71,4.6,17.68,10.54,3.6-.28,7.69-5.29,8.68-10.58-.28-4.38.17-15.91-.53-20.9s-2-7.36-4-8.64c-1-.64-3.86-.84-5-.8l-8,.8Z" style="opacity:0.2"></path><path d="M127,265.7c-3-3.42-7-.09-5.52,3.05,1.3,2.75,6,4.63,6,4.63s4.05-2.12,4.75-6.12C132.75,264.26,129.19,261.88,127,265.7Z" style="fill:#f0f0f0"></path><path d="M135.4,283.26c0-.45-.05-1-.06-1.57-3,2.7-11.13,3.91-15.57,2.94-5.32-1.15-9.5-4.91-9.24-6.91L109,283.3c2.14,4.93,11.71,4.6,17.68,10.54C130.32,293.56,134.41,288.55,135.4,283.26Z" style="opacity:0.15"></path><path d="M96.73,247.84c5.17,9.87,10.2,14.66,13.12,18.43,5.58.11,6-8.21,3.34-11.69,0,0-8.56-8.12-10-12.24-1.37-3.8-3.36-10.43-3.35-13.64a2.2,2.2,0,0,1,.58-1.44c1-1.16,1-2.08,1.65-3.35.51-1,1.07-1.37.9-1.59a1.26,1.26,0,0,0-1.71-.08,6.56,6.56,0,0,0-1.27,1.28,14.35,14.35,0,0,1,.9-4.35c1.1-2.67.78-4-2.76-3-2.22.65-4.48,2.13-4.68,7.51a67.16,67.16,0,0,0,.24,7.47c.49,4.12.9,7.68,1.5,11.09A24.22,24.22,0,0,0,96.73,247.84Z" style="fill:#ffbda7"></path><path d="M116,242c-.43.3-.53.45-.89-.27-.78-1.55-3.33-2-4.08,0s1.16,4.44,2.62,4.77c2.52.57,2.76-1,2.76-1l.9,8.85a7.92,7.92,0,0,0,6.32,4.05c4.41.24,4.07-3.41,2.5-5.05l-.2-2.49a10.62,10.62,0,0,0,3.2-.58c1.36-.49,2.35-1.4,3.09-3.59,1-2.93.92-6-.45-11.8-1.59-6.65-9.9-6.19-13.94-3.17S116,242,116,242Z" style="fill:#ffbda7"></path><path d="M115.15,241.69l.2,2h0a1.91,1.91,0,0,0,1.75-2l-.22-4.18-2.69.71Z" style="fill:#263238"></path><path d="M123.5,226.29h0a10.94,10.94,0,0,1,12,9.76l.15,1.41-5.33.56a5,5,0,0,1-5.37-3.78h0l1,4.08h0a4.33,4.33,0,0,1-4.67-2.72l-.32-1h0a5,5,0,0,1-4.44,4.87l-1.28,0-.54-7.65Z" style="fill:#263238"></path><path d="M126,250.81s-4.37-.1-6.44-1.21a5.52,5.52,0,0,1-2.1-1.77,5.39,5.39,0,0,0,1.29,2.18c2.12,2.15,7.34,1.86,7.34,1.86Z" style="fill:#f0997a"></path><path d="M124.35,241.08a.93.93,0,0,1-.87,1,.94.94,0,0,1-1-.92.92.92,0,1,1,1.83-.07Z" style="fill:#263238"></path><path d="M124.25,245.68l3.33.54a1.66,1.66,0,0,1-1.89,1.45A1.78,1.78,0,0,1,124.25,245.68Z" style="fill:#b16668"></path><path d="M125.69,247.67a1.56,1.56,0,0,0,.68,0,1.45,1.45,0,0,0-1.47-1.3,1.54,1.54,0,0,0-.57.14A1.73,1.73,0,0,0,125.69,247.67Z" style="fill:#ffa8a7"></path><path d="M132.28,237.54l-2.13-.68a1.08,1.08,0,0,1,1.37-.75A1.17,1.17,0,0,1,132.28,237.54Z" style="fill:#263238"></path><path d="M131.14,240a.92.92,0,0,1-.87,1,1,1,0,1,1,.87-1Z" style="fill:#263238"></path><polygon points="126.71 239.62 127.18 244.49 129.68 243.51 126.71 239.62" style="fill:#f0997a"></polygon><path d="M153.13,281.83H136.57a10.53,10.53,0,0,1-3.31,2.85c-6,3.48-15.79,3.48-21.82,0a10.53,10.53,0,0,1-3.31-2.85H91.57c-.35,5.57,2.47,11.26,8.47,14.71,12.32,7.12,32.3,7.12,44.62,0C150.66,293.09,153.48,287.4,153.13,281.83Z" style="fill:#455a64"></path></g></g><g id="freepik--Ball--inject-3"><g id="freepik--ball--inject-3"><circle cx="171.99" cy="168.25" r="26.32" style="fill:#f5f5f5"></circle><path d="M187.7,147.14a6.15,6.15,0,0,1-1.26,3.68l2.42,2.83a12.83,12.83,0,0,1,5.25.35A26.33,26.33,0,0,0,187.7,147.14Z" style="fill:#BA68C8"></path><path d="M187.7,147.14a6.15,6.15,0,0,1-1.26,3.68l2.42,2.83a12.83,12.83,0,0,1,5.25.35A26.33,26.33,0,0,0,187.7,147.14Z" style="fill:#fff;opacity:0.5"></path><path d="M183,192.15a26.36,26.36,0,0,0,14.9-19.47c0-.07-1.34-12.92-8.89-17.14l-1.5.94s2.74,6.9,1.6,17.63C187.91,185.68,184.91,189.18,183,192.15Z" style="fill:#BA68C8"></path><path d="M183,192.15a26.36,26.36,0,0,0,14.9-19.47c0-.07-1.34-12.92-8.89-17.14l-1.5.94s2.74,6.9,1.6,17.63C187.91,185.68,184.91,189.18,183,192.15Z" style="fill:#fff;opacity:0.5"></path><path d="M160.68,161.9c-11.18,10-11.43,19.61-11.43,19.61h0a26.49,26.49,0,0,0,7.56,8.24c1-.22,8.84-2.19,17.4-11.33,9.17-9.81,11.55-22.41,11.55-22.41l-2.89-2.79S171.86,151.85,160.68,161.9Z" style="fill:#BA68C8"></path><path d="M160.68,161.9c-11.18,10-11.43,19.61-11.43,19.61h0a26.49,26.49,0,0,0,7.56,8.24c1-.22,8.84-2.19,17.4-11.33,9.17-9.81,11.55-22.41,11.55-22.41l-2.89-2.79S171.86,151.85,160.68,161.9Z" style="fill:#fff;opacity:0.5"></path><path d="M157.44,146.32c12.43-4.73,24.94,5,24.94,5L184,150a17,17,0,0,0-4.69-7,26.47,26.47,0,0,0-21.86,3.36Z" style="fill:#BA68C8"></path><path d="M157.44,146.32c12.43-4.73,24.94,5,24.94,5L184,150a17,17,0,0,0-4.69-7,26.47,26.47,0,0,0-21.86,3.36Z" style="fill:#fff;opacity:0.5"></path><path d="M176.2,146.66l.29-.07c.36-.07.78-.22.86-.58a.89.89,0,0,0-.15-.57c-.87-1.5-2.87-1.82-4.44-2a12.39,12.39,0,0,0-9.79,3.4,4.77,4.77,0,0,0-.9,1.15c-.15.28-.56.92-.39,1.22s.5.24.78.18c1.57-.34,3.08-.9,4.63-1.29C170.08,147.39,173.19,147.28,176.2,146.66Z" style="fill:#fff;mix-blend-mode:soft-light"></path><path d="M178,145a1.62,1.62,0,0,0,.57.65,5.06,5.06,0,0,0,3.34,1c.4,0,.86-.14,1-.51s-.21-.87-.59-1.15a5.73,5.73,0,0,0-2.64-1.14C179,143.82,177.52,144,178,145Z" style="fill:#fff;mix-blend-mode:soft-light"></path><path d="M187.33,151.53c1.65,1.55,2.29,3.55,1.42,4.48s-2.91.43-4.56-1.11-2.29-3.55-1.42-4.48S185.68,150,187.33,151.53Z" style="fill:#455a64"></path><path d="M198.31,168.25a26.21,26.21,0,0,0-1.3-8.16c4.61,25.57-26.55,33.27-38.32,18.73-14-17.31-1.25-32.5,7.94-36.34a26.32,26.32,0,1,0,31.68,25.77Z" style="opacity:0.07"></path></g></g></svg>